<svg xmlns="http://www.w3.org/2000/svg" width="884.661" height="855.712" viewBox="0 0 884.661 855.712">
    <defs>
        <linearGradient id="k8qwkl9y3a" x1=".893" y1=".897" x2=".125" y2=".096" gradientUnits="objectBoundingBox">
            <stop offset="0" stop-color="#37b163"/>
            <stop offset="1" stop-color="#43d477" stop-opacity="0"/>
        </linearGradient>
    </defs>
    <g data-name="Group 1896">
        <path data-name="Polygon 6" d="M467.346 0a70 70 0 0 1 60.614 34.987l128.815 223a70 70 0 0 1 0 70.027l-128.815 223A70 70 0 0 1 467.346 586H209.654a70 70 0 0 1-60.614-34.987l-128.815-223a70 70 0 0 1 0-70.027l128.815-223A70 70 0 0 1 209.654 0z" transform="rotate(14 -158.742 783.246)" style="opacity:.1;fill:url(#k8qwkl9y3a)"/>
        <g data-name="Polygon 7" style="fill:none;opacity:.5">
            <path d="M467.346 0a70 70 0 0 1 60.614 34.987l128.815 223a70 70 0 0 1 0 70.027l-128.815 223A70 70 0 0 1 467.346 586H209.654a70 70 0 0 1-60.614-34.987l-128.815-223a70 70 0 0 1 0-70.027l128.815-223A70 70 0 0 1 209.654 0z" style="stroke:none" transform="rotate(32 155.264 541.38)"/>
            <path d="M209.654 1a69.093 69.093 0 0 0-34.493 9.24 69.093 69.093 0 0 0-25.255 25.247l-128.815 223A69.091 69.091 0 0 0 11.84 293c0 12.1 3.2 24.035 9.252 34.513l128.815 223a69.093 69.093 0 0 0 25.255 25.247 69.093 69.093 0 0 0 34.493 9.24h257.692a69.091 69.091 0 0 0 34.493-9.241 69.093 69.093 0 0 0 25.255-25.246l128.815-223A69.092 69.092 0 0 0 665.16 293c0-12.1-3.2-24.035-9.252-34.513l-128.815-223a69.093 69.093 0 0 0-25.255-25.247A69.093 69.093 0 0 0 467.346 1H209.654m0-1h257.692a70 70 0 0 1 60.614 34.987l128.815 223a70 70 0 0 1 0 70.026l-128.815 223A70.004 70.004 0 0 1 467.346 586c-.001 0 .001 0 0 0H209.654a70 70 0 0 1-60.614-34.987l-128.815-223a70 70 0 0 1 0-70.026l128.815-223A70 70 0 0 1 209.654 0z" style="fill:#f1f1f1;stroke:none" transform="rotate(32 155.264 541.38)"/>
        </g>
    </g>
</svg>
