<svg xmlns="http://www.w3.org/2000/svg" version="1.1" xmlns:xlink="http://www.w3.org/1999/xlink" xmlns:svgjs="http://svgjs.com/svgjs" width="512" height="512" x="0" y="0" viewBox="0 0 510 510" style="enable-background:new 0 0 512 512" xml:space="preserve" class=""><g><linearGradient xmlns="http://www.w3.org/2000/svg" id="lg1"><stop offset="0" stop-color="#7faef4"></stop><stop offset="1" stop-color="#4c8df1"></stop></linearGradient><linearGradient xmlns="http://www.w3.org/2000/svg" id="SVGID_1_" gradientUnits="userSpaceOnUse" x1="72.017" x2="448.659" xmlns:xlink="http://www.w3.org/1999/xlink" xlink:href="#lg1" y1="30.771" y2="407.412"></linearGradient><linearGradient xmlns="http://www.w3.org/2000/svg" id="SVGID_2_" gradientUnits="userSpaceOnUse" x1="393.324" x2="118.808" xmlns:xlink="http://www.w3.org/1999/xlink" xlink:href="#lg1" y1="393.324" y2="118.808"></linearGradient><linearGradient xmlns="http://www.w3.org/2000/svg" id="SVGID_3_" gradientUnits="userSpaceOnUse" x1="220.253" x2="342.575" y1="220.253" y2="342.575"><stop offset="0" stop-color="#4166bf"></stop><stop offset="1" stop-color="#4256ac"></stop></linearGradient><linearGradient xmlns="http://www.w3.org/2000/svg" id="SVGID_4_" gradientUnits="userSpaceOnUse" x1="368.352" x2="227.221" y1="309.634" y2="168.502"><stop offset="0" stop-color="#4256ac" stop-opacity="0"></stop><stop offset="1" stop-color="#1b1464"></stop></linearGradient><linearGradient xmlns="http://www.w3.org/2000/svg" id="lg2"><stop offset="0" stop-color="#ebeff0"></stop><stop offset="1" stop-color="#e3e5e4"></stop></linearGradient><linearGradient xmlns="http://www.w3.org/2000/svg" id="SVGID_5_" gradientUnits="userSpaceOnUse" x1="51.502" x2="399.05" xmlns:xlink="http://www.w3.org/1999/xlink" xlink:href="#lg2" y1="-7.217" y2="340.331"></linearGradient><linearGradient xmlns="http://www.w3.org/2000/svg" id="SVGID_6_" gradientUnits="userSpaceOnUse" x1="232.637" x2="276.114" xmlns:xlink="http://www.w3.org/1999/xlink" xlink:href="#lg2" y1="303.885" y2="381.967"></linearGradient><g xmlns="http://www.w3.org/2000/svg"><path d="m239.907 2.943c-38.555 15.625-127.875 53.362-171.842 62.404-9.715 1.998-16.648 10.61-16.648 20.528v127.182c0 99.733 44.909 194.164 122.273 257.105l23.878 19.426c33.451 27.215 81.411 27.215 114.863 0l23.878-19.426c77.364-62.941 122.273-157.376 122.273-257.109v-127.178c0-9.918-6.933-18.53-16.648-20.528-43.967-9.042-133.287-46.779-171.841-62.404-9.683-3.924-20.503-3.924-30.186 0z" fill="url(#SVGID_1_)" data-original="url(#SVGID_1_)"></path><g><circle cx="255" cy="255" fill="url(#SVGID_2_)" r="169.321" data-original="url(#SVGID_2_)"></circle><path d="m405.238 255c0 45.321-20.067 85.954-51.801 113.5-26.365 22.886-60.783 22.738-98.437 22.738-37.275 0-71.379.426-97.639-22.05-32.195-27.555-52.599-68.489-52.599-114.188 0-82.974 67.264-150.238 150.238-150.238s150.238 67.264 150.238 150.238z" fill="url(#SVGID_3_)" data-original="url(#SVGID_3_)"></path><path d="m255.332 127.937c-38.909 0-68.676 29.767-68.676 68.676 0 20.788 7.232 39.467 21.552 52.363l121.193 121.193c5.079-3.425 19.423 2.333 24.035-1.67 31.734-27.546 51.802-68.178 51.802-113.499 0-2.749-.079-5.48-.225-8.193l-97.318-97.318c-12.896-14.32-31.575-21.552-52.363-21.552z" fill="url(#SVGID_4_)" data-original="url(#SVGID_4_)"></path><circle cx="255" cy="196.281" fill="url(#SVGID_5_)" r="70.452" data-original="url(#SVGID_5_)"></circle><path d="m348.476 315.4c19.076 12.239 20.97 39.524 3.686 54.185-.199.169-.398.337-.598.505-26.113 21.943-59.795 35.145-96.564 35.145-37.133 0-71.107-13.469-97.327-35.793-.102-.087-.204-.174-.306-.261-17.185-14.694-15.152-41.941 3.917-54.088 26.972-17.181 59.001-27.131 93.351-27.131 34.573 0 66.77 10.069 93.841 27.438z" fill="url(#SVGID_6_)" data-original="url(#SVGID_6_)"></path></g></g></g></svg>