<svg width="196" height="196" viewBox="0 0 196 196" fill="none" xmlns="http://www.w3.org/2000/svg">
<g clip-path="url(#clip0_66_169)">
<path fill-rule="evenodd" clip-rule="evenodd" d="M92.5927 132.004C72.8792 136.132 51.4557 137.092 32.6095 130.024C25.752 127.453 19.874 123.499 13.8199 119.506C13.3949 119.226 13.2766 118.652 13.5567 118.225C13.8391 117.798 14.4133 117.68 14.8399 117.962C20.7775 121.878 26.534 125.77 33.259 128.291C51.8378 135.259 72.963 134.251 92.3864 130.158L92.3475 129.854C91.9165 126.556 93.9897 122.549 97.4442 118.726C102.395 113.244 110.111 108.07 116.342 105.801C119.143 104.781 121.662 104.354 123.541 104.668C125.005 104.913 126.122 105.592 126.805 106.716C128.261 109.112 127.273 112.165 124.629 115.257C119.101 121.725 106.472 128.645 100.272 130.222C98.3357 130.714 96.3763 131.181 94.3989 131.615C94.4589 132.197 94.5201 132.767 94.6046 133.319C94.8499 134.889 95.2962 136.331 96.6022 137.618C98.6397 139.622 101.474 140.71 104.542 141.265C109.329 142.127 114.687 141.676 118.701 141.113C141.054 137.976 155.458 125.259 165.363 111.134C175.365 96.8669 180.808 81.1574 185.172 72.2351C185.395 71.7757 185.95 71.5879 186.409 71.8114C186.869 72.035 187.059 72.59 186.833 73.0487C182.441 82.0289 176.947 97.8348 166.876 112.196C156.711 126.698 141.905 139.724 118.959 142.946C114.779 143.533 109.199 143.985 104.214 143.086C100.763 142.462 97.5967 141.192 95.3038 138.936C93.2472 136.912 92.8798 134.601 92.5927 132.004ZM94.2017 129.765L94.1807 129.613C93.8037 126.73 95.796 123.309 98.8173 119.967C103.575 114.7 110.986 109.722 116.977 107.541C119.031 106.791 120.907 106.373 122.434 106.417C123.693 106.455 124.693 106.802 125.222 107.677C125.726 108.501 125.745 109.434 125.437 110.422C125.078 111.583 124.291 112.805 123.224 114.055C117.912 120.269 105.774 126.914 99.8161 128.429C97.9654 128.898 96.0932 129.346 94.2017 129.765Z" fill="#00C7C4"/>
<path fill-rule="evenodd" clip-rule="evenodd" d="M12.3895 116.09C12.3529 116.494 12.4691 117.049 12.6012 117.645C12.9143 119.066 13.4907 120.651 13.732 121.409C13.8861 121.898 13.6143 122.416 13.1284 122.571C12.6401 122.725 12.1207 122.456 11.9665 121.968C11.6721 121.038 10.9079 118.924 10.648 117.283C10.5092 116.403 10.5303 115.634 10.7249 115.136C11.0548 114.286 11.9056 113.948 13.2611 114.388C14.8642 114.91 17.6212 116.615 20.4228 116.392C20.9308 116.35 21.3783 116.733 21.4174 117.24C21.4582 117.751 21.0786 118.197 20.5682 118.237C17.8972 118.449 15.2392 117.17 13.4163 116.422C13.0697 116.281 12.6436 116.158 12.3895 116.09Z" fill="#00C7C4"/>
</g>
<defs>
<clipPath id="clip0_66_169">
<rect width="156.919" height="156.919" fill="white" transform="matrix(-0.958203 -0.286088 -0.286088 0.958203 195.253 44.8926)"/>
</clipPath>
</defs>
</svg>
