<svg width="38" height="36" viewBox="0 0 38 36" fill="none" xmlns="http://www.w3.org/2000/svg">
<circle cx="19" cy="23" r="3.8" stroke="black" stroke-width="0.4"/>
<path d="M9 29H2C1.44772 29 1 28.5523 1 28V2C1 1.44771 1.44772 1 2 1H36C36.5523 1 37 1.44772 37 2V28C37 28.5523 36.5523 29 36 29H29" stroke="black" stroke-width="0.4" stroke-linecap="round"/>
<path d="M11 35C11.3333 33 12.6 29 15 29C17.4 29 21.3333 29 23 29C24 29 26.2 30.2 27 35" stroke="black" stroke-width="0.4" stroke-linecap="round"/>
<path d="M17.1486 11.0825L22.8427 14.2459C22.9112 14.284 22.9112 14.3826 22.8427 14.4207L17.1486 17.5841C17.0819 17.6212 17 17.573 17 17.4967V11.17C17 11.0937 17.0819 11.0455 17.1486 11.0825Z" stroke="black" stroke-width="0.4" stroke-linecap="round"/>
</svg>
