<svg width="36" height="42" viewBox="0 0 36 42" fill="none" xmlns="http://www.w3.org/2000/svg">
<path fill-rule="evenodd" clip-rule="evenodd" d="M29.0007 24.7999C29.1112 24.7999 29.2007 24.8894 29.2008 24.9999L29.2022 28.7999H33.0008C33.1112 28.7999 33.2008 28.8895 33.2008 28.9999C33.2008 29.1104 33.1112 29.1999 33.0008 29.1999H29.0023H28.8024L28.8023 29L28.8008 25C28.8007 24.8895 28.8902 24.8 29.0007 24.7999Z" fill="black"/>
<path d="M29.2008 24.9999L29.0008 24.9999L29.2008 24.9999ZM29.0007 24.7999L29.0006 24.5999L29.0007 24.7999ZM29.2022 28.7999L29.0022 28.8C29.0023 28.9104 29.0918 28.9999 29.2022 28.9999V28.7999ZM28.8024 29.1999L28.6024 29.2C28.6024 29.3104 28.6919 29.3999 28.8024 29.3999V29.1999ZM28.8023 29L29.0023 28.9999L28.8023 29ZM28.8008 25L28.6008 25.0001L28.8008 25ZM29.4008 24.9998C29.4007 24.7789 29.2215 24.5998 29.0006 24.5999L29.0008 24.9999L29.4008 24.9998ZM29.4022 28.7999L29.4008 24.9998L29.0008 24.9999L29.0022 28.8L29.4022 28.7999ZM33.0008 28.5999H29.2022V28.9999H33.0008V28.5999ZM33.4008 28.9999C33.4008 28.779 33.2217 28.5999 33.0008 28.5999V28.9999H33.4008ZM33.0008 29.3999C33.2217 29.3999 33.4008 29.2208 33.4008 28.9999H33.0008V29.3999ZM29.0023 29.3999H33.0008V28.9999H29.0023V29.3999ZM28.8024 29.3999H29.0023V28.9999H28.8024V29.3999ZM28.6023 29.0001L28.6024 29.2L29.0024 29.1999L29.0023 28.9999L28.6023 29.0001ZM28.6008 25.0001L28.6023 29.0001L29.0023 28.9999L29.0008 24.9999L28.6008 25.0001ZM29.0006 24.5999C28.7797 24.6 28.6007 24.7792 28.6008 25.0001L29.0008 24.9999L29.0006 24.5999Z" fill="black"/>
<rect x="11" y="5" width="12" height="8" rx="0.5" stroke="black" stroke-width="0.4"/>
<circle cx="29" cy="29" r="6" stroke="black" stroke-width="0.4"/>
<path d="M29 20V2C29 1.44771 28.5523 1 28 1H2C1.44771 1 1 1.44772 1 2V40C1 40.5523 1.44772 41 2 41H28C28.5523 41 29 40.5523 29 40V38" stroke="black" stroke-width="0.4" stroke-linecap="round"/>
<line x1="5.2" y1="1" x2="5.2" y2="41" stroke="black" stroke-width="0.4"/>
</svg>
