<svg width="38" height="42" viewBox="0 0 38 42" fill="none" xmlns="http://www.w3.org/2000/svg">
<path d="M29 17V2C29 1.44772 28.5523 1 28 1H2C1.44771 1 1 1.44772 1 2V40C1 40.5523 1.44772 41 2 41H28C28.5523 41 29 40.5523 29 40V32" stroke="black" stroke-width="0.4" stroke-linecap="round"/>
<path d="M23.1129 28.0875L32.0039 17.0674C32.1704 16.861 32.4122 16.7292 32.6759 16.701L34.4225 16.5142C34.9717 16.4555 35.4645 16.853 35.5232 17.4022L35.71 19.1489C35.7382 19.4126 35.6604 19.6767 35.4939 19.8831L26.6029 30.9032" stroke="black" stroke-width="0.4" stroke-linecap="round"/>
<path d="M23.1113 28.0876L22.7445 32.113" stroke="black" stroke-width="0.4" stroke-linecap="round"/>
<path d="M22.7456 32.1129L26.6024 30.9032" stroke="black" stroke-width="0.4" stroke-linecap="round"/>
<path d="M30.8555 18.4899L34.3455 21.3056" stroke="black" stroke-width="0.4" stroke-linecap="round"/>
<path d="M8 7H5.1C5.04477 7 5 7.04477 5 7.1V10C5 10.5523 5.44772 11 6 11H8C8.55228 11 9 10.5523 9 10V8C9 7.44772 8.55228 7 8 7Z" stroke="black" stroke-width="0.4" stroke-linecap="round"/>
<path d="M8 15H5.1C5.04477 15 5 15.0448 5 15.1V18C5 18.5523 5.44772 19 6 19H8C8.55228 19 9 18.5523 9 18V16C9 15.4477 8.55228 15 8 15Z" stroke="black" stroke-width="0.4" stroke-linecap="round"/>
<path d="M8 23H5.1C5.04477 23 5 23.0448 5 23.1V26C5 26.5523 5.44772 27 6 27H8C8.55228 27 9 26.5523 9 26V24C9 23.4477 8.55228 23 8 23Z" stroke="black" stroke-width="0.4" stroke-linecap="round"/>
<path d="M8 31H5.1C5.04477 31 5 31.0448 5 31.1V34C5 34.5523 5.44772 35 6 35H8C8.55228 35 9 34.5523 9 34V32C9 31.4477 8.55228 31 8 31Z" stroke="black" stroke-width="0.4" stroke-linecap="round"/>
<path d="M11 8H17" stroke="black" stroke-width="0.4" stroke-linecap="round"/>
<path d="M11 10H21" stroke="black" stroke-width="0.4" stroke-linecap="round"/>
<path d="M11 16H17" stroke="black" stroke-width="0.4" stroke-linecap="round"/>
<path d="M11 18H21" stroke="black" stroke-width="0.4" stroke-linecap="round"/>
<path d="M11 24H21" stroke="black" stroke-width="0.4" stroke-linecap="round"/>
<path d="M11 26H17" stroke="black" stroke-width="0.4" stroke-linecap="round"/>
<path d="M11 32H17" stroke="black" stroke-width="0.4" stroke-linecap="round"/>
<path d="M11 34H21" stroke="black" stroke-width="0.4" stroke-linecap="round"/>
</svg>
