<svg width="38" height="46" viewBox="0 0 38 46" fill="none" xmlns="http://www.w3.org/2000/svg">
<line x1="15.2" y1="1" x2="15.2" y2="37" stroke="black" stroke-width="0.4"/>
<line x1="5.2" y1="9" x2="5.2" y2="45" stroke="black" stroke-width="0.4"/>
<rect x="21" y="5" width="10" height="6" rx="0.5" stroke="black" stroke-width="0.4"/>
<path d="M35 10.9V2C35 1.44772 34.5523 1 34 1H12C11.4477 1 11 1.44772 11 2V36C11 36.5523 11.4477 37 12 37H34C34.5523 37 35 36.5523 35 36V35.2V32.5" stroke="black" stroke-width="0.4" stroke-linecap="round"/>
<path d="M7 9H2C1.44772 9 1 9.44772 1 10V44C1 44.5523 1.44772 45 2 45H24C24.5523 45 25 44.5523 25 44V40" stroke="black" stroke-width="0.4" stroke-linecap="round"/>
<path d="M33 25V16C33 15.4477 33.4477 15 34 15H35H36C36.5523 15 37 15.4477 37 16V25" stroke="black" stroke-width="0.4" stroke-linecap="round"/>
<path d="M33 25L35 29" stroke="black" stroke-width="0.4" stroke-linecap="round"/>
<path d="M35 29L37 25" stroke="black" stroke-width="0.4" stroke-linecap="round"/>
<line x1="33" y1="18.8" x2="37" y2="18.8" stroke="black" stroke-width="0.4"/>
</svg>
