<svg width="174" height="73" viewBox="0 0 174 73" fill="none" xmlns="http://www.w3.org/2000/svg">
<path fill-rule="evenodd" clip-rule="evenodd" d="M79.5927 61.0037C59.8792 65.1323 38.4557 66.0917 19.6095 59.0237C12.752 56.4527 6.87402 52.4991 0.819887 48.5056C0.394945 48.2263 0.276643 47.6521 0.556718 47.2248C0.839118 46.7983 1.41328 46.68 1.83984 46.9624C7.77748 50.8778 13.534 54.7697 20.259 57.291C38.8378 64.2588 59.963 63.251 79.3864 59.1578L79.3475 58.854C78.9165 55.5558 80.9897 51.5488 84.4442 47.7255C89.3951 42.2445 97.1111 37.0705 103.342 34.8007C106.143 33.7813 108.662 33.3541 110.541 33.6684C112.005 33.9126 113.122 34.5916 113.805 35.7158C115.261 38.1125 114.273 41.165 111.629 44.2569C106.101 50.7248 93.472 57.6445 87.2719 59.2222C85.3357 59.7141 83.3763 60.1814 81.3989 60.6153C81.4589 61.1975 81.5201 61.7673 81.6046 62.3187C81.8499 63.889 82.2962 65.3312 83.6022 66.6184C85.6397 68.6221 88.4742 69.7099 91.5416 70.2648C96.3294 71.1274 101.687 70.676 105.701 70.113C128.054 66.9759 142.458 54.2594 152.363 40.134C162.365 25.8669 167.808 10.1574 172.172 1.23507C172.395 0.77569 172.95 0.587874 173.409 0.811449C173.869 1.03503 174.059 1.58997 173.833 2.04866C169.441 11.0289 163.947 26.8348 153.876 41.1958C143.711 55.6985 128.905 68.7243 105.959 71.9464C101.779 72.5333 96.1994 72.9848 91.214 72.086C87.763 71.4623 84.5967 70.1916 82.3038 67.9362C80.2472 65.9115 79.8798 63.6007 79.5927 61.0037ZM81.2017 58.7645L81.1807 58.6134C80.8037 55.7303 82.796 52.3093 85.8173 48.9666C90.5746 43.6997 97.9855 38.7219 103.977 36.5405C106.031 35.7913 107.907 35.373 109.434 35.4171C110.693 35.4551 111.693 35.8019 112.222 36.6767C112.726 37.5007 112.745 38.434 112.437 39.4223C112.078 40.5833 111.291 41.8049 110.224 43.0545C104.912 49.269 92.7739 55.9136 86.8161 57.4289C84.9654 57.8981 83.0932 58.3456 81.2017 58.7645Z" fill="#00C7C4"/>
</svg>
