<svg width="17" height="17" viewBox="0 0 17 17" fill="none" xmlns="http://www.w3.org/2000/svg">
<path d="M11.75 16.4999C5.54688 16.4999 0.5 11.4531 0.5 5.24995C0.502346 4.18593 0.890995 3.15896 1.59369 2.35999C2.29638 1.56102 3.26531 1.0444 4.32031 0.906195C4.58925 0.876376 4.8607 0.932999 5.09529 1.06785C5.32989 1.20271 5.51542 1.40878 5.625 1.6562L7.19531 5.32026C7.27677 5.51045 7.30943 5.71797 7.29033 5.92398C7.27123 6.12999 7.20097 6.32797 7.08594 6.49994L5.78906 8.48432C6.37631 9.67611 7.34394 10.6382 8.53906 11.2187L10.5 9.91401C10.6718 9.79821 10.8703 9.72811 11.0767 9.71034C11.2831 9.69257 11.4906 9.72771 11.6797 9.81244L15.3438 11.3749C15.5912 11.4845 15.7972 11.6701 15.9321 11.9046C16.0669 12.1392 16.1236 12.4107 16.0938 12.6796C15.9555 13.7346 15.4389 14.7036 14.64 15.4063C13.841 16.1089 12.814 16.4976 11.75 16.4999ZM4.47656 2.14838C3.72262 2.2453 3.02985 2.61371 2.52796 3.18462C2.02608 3.75553 1.7495 4.4898 1.75 5.24995C1.75207 7.90147 2.8063 10.4438 4.68122 12.3187C6.55613 14.1936 9.09847 15.2479 11.75 15.2499C12.5101 15.2504 13.2444 14.9739 13.8153 14.472C14.3862 13.9701 14.7546 13.2773 14.8516 12.5234L11.1875 10.9609L9.23438 12.2656C9.05466 12.3844 8.8473 12.4547 8.63239 12.4698C8.41748 12.4848 8.20234 12.4441 8.00781 12.3515C6.5523 11.6474 5.37495 10.4756 4.66406 9.02338C4.57033 8.82952 4.52828 8.61473 4.54196 8.39984C4.55565 8.18494 4.62462 7.97722 4.74219 7.79682L6.04688 5.81245L4.47656 2.14838Z" fill="white"/>
</svg>
