<svg width="33" height="33" viewBox="0 0 33 33" fill="none" xmlns="http://www.w3.org/2000/svg">
<path d="M31.7 3.16652H30.3667V2.36657C30.3667 2.1544 30.2824 1.95093 30.1324 1.80091C29.9823 1.65089 29.7788 1.56661 29.5667 1.56661H16.7667C16.6756 1.56749 16.5854 1.58409 16.5 1.61567C16.4146 1.58409 16.3244 1.56749 16.2333 1.56661H10.1V1.08663C10.1 0.93105 10.0382 0.781837 9.92817 0.671821C9.81815 0.561806 9.66893 0.5 9.51333 0.5H5.35333C5.19774 0.5 5.04852 0.561806 4.9385 0.671821C4.82848 0.781837 4.76667 0.93105 4.76667 1.08663V1.56661H3.43333C3.22116 1.56661 3.01768 1.65089 2.86765 1.80091C2.71762 1.95093 2.63333 2.1544 2.63333 2.36657V3.16652H1.3C1.08783 3.16652 0.884344 3.2508 0.734315 3.40082C0.584285 3.55085 0.5 3.75432 0.5 3.96648V29.5651C0.5 29.7773 0.584285 29.9807 0.734315 30.1308C0.884344 30.2808 1.08783 30.3651 1.3 30.3651H13.4824C13.7027 30.9893 14.1113 31.5299 14.6517 31.9123C15.1922 32.2947 15.8379 32.5 16.5 32.5C17.1621 32.5 17.8078 32.2947 18.3483 31.9123C18.8887 31.5299 19.2973 30.9893 19.5176 30.3651H31.7C31.9122 30.3651 32.1157 30.2808 32.2657 30.1308C32.4157 29.9807 32.5 29.7773 32.5 29.5651V3.96648C32.5 3.75432 32.4157 3.55085 32.2657 3.40082C32.1157 3.2508 31.9122 3.16652 31.7 3.16652ZM17.0333 2.63322H29.3V27.1652H17.0333V2.63322ZM5.83333 1.56661H9.03333V12.3122L7.892 10.8861C7.83731 10.8169 7.7676 10.761 7.68814 10.7227C7.60869 10.6843 7.52156 10.6645 7.43333 10.6648L7.1352 10.6851L5.83333 12.3122V1.56661ZM3.7 2.63322H4.76667V13.6806C4.76668 13.8022 4.80445 13.9207 4.87477 14.0199C4.94509 14.119 5.04447 14.1939 5.15919 14.2341C5.2739 14.2744 5.39828 14.278 5.51513 14.2444C5.63198 14.2109 5.73553 14.1419 5.81147 14.047L7.43333 12.0194L9.0552 14.0459C9.11021 14.1146 9.17994 14.1699 9.25924 14.208C9.33854 14.246 9.42538 14.2657 9.51333 14.2657C9.57943 14.2654 9.64502 14.2542 9.70747 14.2326C9.82193 14.1925 9.92115 14.1178 9.99144 14.019C10.0617 13.9201 10.0997 13.8019 10.1 13.6806V2.63322H15.9667V27.1652H3.7V2.63322ZM31.4333 29.2984H19.3203C19.1455 29.2983 18.9755 29.3557 18.8365 29.4617C18.6976 29.5677 18.5973 29.7165 18.5512 29.8851C18.4237 30.3306 18.1545 30.7224 17.7845 31.0013C17.4145 31.2803 16.9637 31.4311 16.5003 31.4311C16.0369 31.4311 15.5861 31.2803 15.216 31.0013C14.846 30.7224 14.5769 30.3306 14.4493 29.8851C14.4027 29.7167 14.3023 29.5681 14.1633 29.4622C14.0243 29.3563 13.8545 29.2988 13.6797 29.2984H1.56667V4.23313H2.63333V27.4319C2.63333 27.644 2.71762 27.8475 2.86765 27.9975C3.01768 28.1476 3.22116 28.2318 3.43333 28.2318H16.2333C16.3244 28.231 16.4146 28.2144 16.5 28.1828C16.5854 28.2144 16.6756 28.231 16.7667 28.2318H29.5667C29.7788 28.2318 29.9823 28.1476 30.1324 27.9975C30.2824 27.8475 30.3667 27.644 30.3667 27.4319V4.23313H31.4333V29.2984Z" fill="white"/>
<path d="M11.6999 4.76644H14.3666C14.5081 4.76644 14.6437 4.71025 14.7437 4.61024C14.8438 4.51023 14.8999 4.37458 14.8999 4.23314C14.8999 4.0917 14.8438 3.95605 14.7437 3.85603C14.6437 3.75602 14.5081 3.69983 14.3666 3.69983H11.6999C11.5585 3.69983 11.4228 3.75602 11.3228 3.85603C11.2228 3.95605 11.1666 4.0917 11.1666 4.23314C11.1666 4.37458 11.2228 4.51023 11.3228 4.61024C11.4228 4.71025 11.5585 4.76644 11.6999 4.76644Z" fill="white"/>
<path d="M11.6999 6.89965H14.3666C14.5081 6.89965 14.6437 6.84346 14.7437 6.74344C14.8438 6.64343 14.8999 6.50778 14.8999 6.36634C14.8999 6.2249 14.8438 6.08925 14.7437 5.98924C14.6437 5.88923 14.5081 5.83304 14.3666 5.83304H11.6999C11.5585 5.83304 11.4228 5.88923 11.3228 5.98924C11.2228 6.08925 11.1666 6.2249 11.1666 6.36634C11.1666 6.50778 11.2228 6.64343 11.3228 6.74344C11.4228 6.84346 11.5585 6.89965 11.6999 6.89965Z" fill="white"/>
<path d="M11.6999 9.03288H14.3666C14.5081 9.03288 14.6437 8.97669 14.7437 8.87667C14.8438 8.77666 14.8999 8.64101 14.8999 8.49957C14.8999 8.35813 14.8438 8.22248 14.7437 8.12247C14.6437 8.02245 14.5081 7.96627 14.3666 7.96627H11.6999C11.5585 7.96627 11.4228 8.02245 11.3228 8.12247C11.2228 8.22248 11.1666 8.35813 11.1666 8.49957C11.1666 8.64101 11.2228 8.77666 11.3228 8.87667C11.4228 8.97669 11.5585 9.03288 11.6999 9.03288Z" fill="white"/>
<path d="M11.6999 11.1661H14.3666C14.5081 11.1661 14.6437 11.1099 14.7437 11.0099C14.8438 10.9099 14.8999 10.7742 14.8999 10.6328C14.8999 10.4913 14.8438 10.3557 14.7437 10.2557C14.6437 10.1557 14.5081 10.0995 14.3666 10.0995H11.6999C11.5585 10.0995 11.4228 10.1557 11.3228 10.2557C11.2228 10.3557 11.1666 10.4913 11.1666 10.6328C11.1666 10.7742 11.2228 10.9099 11.3228 11.0099C11.4228 11.1099 11.5585 11.1661 11.6999 11.1661Z" fill="white"/>
<path d="M11.6999 13.2993H14.3666C14.5081 13.2993 14.6437 13.2431 14.7437 13.1431C14.8438 13.0431 14.8999 12.9074 14.8999 12.766C14.8999 12.6246 14.8438 12.4889 14.7437 12.3889C14.6437 12.2889 14.5081 12.2327 14.3666 12.2327H11.6999C11.5585 12.2327 11.4228 12.2889 11.3228 12.3889C11.2228 12.4889 11.1666 12.6246 11.1666 12.766C11.1666 12.9074 11.2228 13.0431 11.3228 13.1431C11.4228 13.2431 11.5585 13.2993 11.6999 13.2993Z" fill="white"/>
<path d="M11.6999 15.4325H14.3666C14.5081 15.4325 14.6437 15.3763 14.7437 15.2763C14.8438 15.1763 14.8999 15.0407 14.8999 14.8992C14.8999 14.7578 14.8438 14.6221 14.7437 14.5221C14.6437 14.4221 14.5081 14.3659 14.3666 14.3659H11.6999C11.5585 14.3659 11.4228 14.4221 11.3228 14.5221C11.2228 14.6221 11.1666 14.7578 11.1666 14.8992C11.1666 15.0407 11.2228 15.1763 11.3228 15.2763C11.4228 15.3763 11.5585 15.4325 11.6999 15.4325Z" fill="white"/>
<path d="M5.29998 17.5657H14.3666C14.5081 17.5657 14.6437 17.5096 14.7438 17.4095C14.8438 17.3095 14.9 17.1739 14.9 17.0324C14.9 16.891 14.8438 16.7554 14.7438 16.6553C14.6437 16.5553 14.5081 16.4991 14.3666 16.4991H5.29998C5.15853 16.4991 5.02287 16.5553 4.92285 16.6553C4.82283 16.7554 4.76664 16.891 4.76664 17.0324C4.76664 17.1739 4.82283 17.3095 4.92285 17.4095C5.02287 17.5096 5.15853 17.5657 5.29998 17.5657Z" fill="white"/>
<path d="M5.29998 19.699H14.3666C14.5081 19.699 14.6437 19.6428 14.7438 19.5428C14.8438 19.4427 14.9 19.3071 14.9 19.1656C14.9 19.0242 14.8438 18.8886 14.7438 18.7885C14.6437 18.6885 14.5081 18.6323 14.3666 18.6323H5.29998C5.15853 18.6323 5.02287 18.6885 4.92285 18.7885C4.82283 18.8886 4.76664 19.0242 4.76664 19.1656C4.76664 19.3071 4.82283 19.4427 4.92285 19.5428C5.02287 19.6428 5.15853 19.699 5.29998 19.699Z" fill="white"/>
<path d="M5.29998 21.8322H14.3666C14.5081 21.8322 14.6437 21.776 14.7438 21.676C14.8438 21.576 14.9 21.4403 14.9 21.2989C14.9 21.1574 14.8438 21.0218 14.7438 20.9218C14.6437 20.8218 14.5081 20.7656 14.3666 20.7656H5.29998C5.15853 20.7656 5.02287 20.8218 4.92285 20.9218C4.82283 21.0218 4.76664 21.1574 4.76664 21.2989C4.76664 21.4403 4.82283 21.576 4.92285 21.676C5.02287 21.776 5.15853 21.8322 5.29998 21.8322Z" fill="white"/>
<path d="M5.29998 23.9654H14.3666C14.5081 23.9654 14.6437 23.9092 14.7438 23.8092C14.8438 23.7092 14.9 23.5735 14.9 23.4321C14.9 23.2907 14.8438 23.155 14.7438 23.055C14.6437 22.955 14.5081 22.8988 14.3666 22.8988H5.29998C5.15853 22.8988 5.02287 22.955 4.92285 23.055C4.82283 23.155 4.76664 23.2907 4.76664 23.4321C4.76664 23.5735 4.82283 23.7092 4.92285 23.8092C5.02287 23.9092 5.15853 23.9654 5.29998 23.9654Z" fill="white"/>
<path d="M5.29998 26.0986H14.3666C14.5081 26.0986 14.6437 26.0424 14.7438 25.9424C14.8438 25.8424 14.9 25.7067 14.9 25.5653C14.9 25.4239 14.8438 25.2882 14.7438 25.1882C14.6437 25.0882 14.5081 25.032 14.3666 25.032H5.29998C5.15853 25.032 5.02287 25.0882 4.92285 25.1882C4.82283 25.2882 4.76664 25.4239 4.76664 25.5653C4.76664 25.7067 4.82283 25.8424 4.92285 25.9424C5.02287 26.0424 5.15853 26.0986 5.29998 26.0986Z" fill="white"/>
<path d="M27.7 3.69983H18.6334C18.4919 3.69983 18.3563 3.75602 18.2562 3.85603C18.1562 3.95605 18.1 4.0917 18.1 4.23314C18.1 4.37458 18.1562 4.51023 18.2562 4.61024C18.3563 4.71025 18.4919 4.76644 18.6334 4.76644H27.7C27.8415 4.76644 27.9771 4.71025 28.0772 4.61024C28.1772 4.51023 28.2334 4.37458 28.2334 4.23314C28.2334 4.0917 28.1772 3.95605 28.0772 3.85603C27.9771 3.75602 27.8415 3.69983 27.7 3.69983Z" fill="white"/>
<path d="M27.7 5.83304H18.6334C18.4919 5.83304 18.3563 5.88923 18.2562 5.98924C18.1562 6.08925 18.1 6.2249 18.1 6.36634C18.1 6.50778 18.1562 6.64343 18.2562 6.74344C18.3563 6.84346 18.4919 6.89965 18.6334 6.89965H27.7C27.8415 6.89965 27.9771 6.84346 28.0772 6.74344C28.1772 6.64343 28.2334 6.50778 28.2334 6.36634C28.2334 6.2249 28.1772 6.08925 28.0772 5.98924C27.9771 5.88923 27.8415 5.83304 27.7 5.83304Z" fill="white"/>
<path d="M27.7 7.96627H18.6334C18.4919 7.96627 18.3563 8.02245 18.2562 8.12247C18.1562 8.22248 18.1 8.35813 18.1 8.49957C18.1 8.64101 18.1562 8.77666 18.2562 8.87667C18.3563 8.97669 18.4919 9.03288 18.6334 9.03288H27.7C27.8415 9.03288 27.9771 8.97669 28.0772 8.87667C28.1772 8.77666 28.2334 8.64101 28.2334 8.49957C28.2334 8.35813 28.1772 8.22248 28.0772 8.12247C27.9771 8.02245 27.8415 7.96627 27.7 7.96627Z" fill="white"/>
<path d="M27.7 10.0995H18.6334C18.4919 10.0995 18.3563 10.1557 18.2562 10.2557C18.1562 10.3557 18.1 10.4913 18.1 10.6328C18.1 10.7742 18.1562 10.9099 18.2562 11.0099C18.3563 11.1099 18.4919 11.1661 18.6334 11.1661H27.7C27.8415 11.1661 27.9771 11.1099 28.0772 11.0099C28.1772 10.9099 28.2334 10.7742 28.2334 10.6328C28.2334 10.4913 28.1772 10.3557 28.0772 10.2557C27.9771 10.1557 27.8415 10.0995 27.7 10.0995Z" fill="white"/>
<path d="M27.7 12.2327H18.6334C18.4919 12.2327 18.3563 12.2889 18.2562 12.3889C18.1562 12.4889 18.1 12.6246 18.1 12.766C18.1 12.9074 18.1562 13.0431 18.2562 13.1431C18.3563 13.2431 18.4919 13.2993 18.6334 13.2993H27.7C27.8415 13.2993 27.9771 13.2431 28.0772 13.1431C28.1772 13.0431 28.2334 12.9074 28.2334 12.766C28.2334 12.6246 28.1772 12.4889 28.0772 12.3889C27.9771 12.2889 27.8415 12.2327 27.7 12.2327Z" fill="white"/>
<path d="M27.7 14.3659H18.6334C18.4919 14.3659 18.3563 14.4221 18.2562 14.5221C18.1562 14.6221 18.1 14.7578 18.1 14.8992C18.1 15.0407 18.1562 15.1763 18.2562 15.2763C18.3563 15.3763 18.4919 15.4325 18.6334 15.4325H27.7C27.8415 15.4325 27.9771 15.3763 28.0772 15.2763C28.1772 15.1763 28.2334 15.0407 28.2334 14.8992C28.2334 14.7578 28.1772 14.6221 28.0772 14.5221C27.9771 14.4221 27.8415 14.3659 27.7 14.3659Z" fill="white"/>
<path d="M27.7 16.4991H18.6334C18.4919 16.4991 18.3563 16.5553 18.2562 16.6553C18.1562 16.7554 18.1 16.891 18.1 17.0324C18.1 17.1739 18.1562 17.3095 18.2562 17.4095C18.3563 17.5096 18.4919 17.5657 18.6334 17.5657H27.7C27.8415 17.5657 27.9771 17.5096 28.0772 17.4095C28.1772 17.3095 28.2334 17.1739 28.2334 17.0324C28.2334 16.891 28.1772 16.7554 28.0772 16.6553C27.9771 16.5553 27.8415 16.4991 27.7 16.4991Z" fill="white"/>
<path d="M27.7 18.6323H18.6334C18.4919 18.6323 18.3563 18.6885 18.2562 18.7885C18.1562 18.8886 18.1 19.0242 18.1 19.1656C18.1 19.3071 18.1562 19.4427 18.2562 19.5428C18.3563 19.6428 18.4919 19.699 18.6334 19.699H27.7C27.8415 19.699 27.9771 19.6428 28.0772 19.5428C28.1772 19.4427 28.2334 19.3071 28.2334 19.1656C28.2334 19.0242 28.1772 18.8886 28.0772 18.7885C27.9771 18.6885 27.8415 18.6323 27.7 18.6323Z" fill="white"/>
<path d="M27.7 20.7656H18.6334C18.4919 20.7656 18.3563 20.8218 18.2562 20.9218C18.1562 21.0218 18.1 21.1574 18.1 21.2989C18.1 21.4403 18.1562 21.576 18.2562 21.676C18.3563 21.776 18.4919 21.8322 18.6334 21.8322H27.7C27.8415 21.8322 27.9771 21.776 28.0772 21.676C28.1772 21.576 28.2334 21.4403 28.2334 21.2989C28.2334 21.1574 28.1772 21.0218 28.0772 20.9218C27.9771 20.8218 27.8415 20.7656 27.7 20.7656Z" fill="white"/>
<path d="M27.7 22.8988H18.6334C18.4919 22.8988 18.3563 22.955 18.2562 23.055C18.1562 23.155 18.1 23.2907 18.1 23.4321C18.1 23.5735 18.1562 23.7092 18.2562 23.8092C18.3563 23.9092 18.4919 23.9654 18.6334 23.9654H27.7C27.8415 23.9654 27.9771 23.9092 28.0772 23.8092C28.1772 23.7092 28.2334 23.5735 28.2334 23.4321C28.2334 23.2907 28.1772 23.155 28.0772 23.055C27.9771 22.955 27.8415 22.8988 27.7 22.8988Z" fill="white"/>
<path d="M27.7 25.032H18.6334C18.4919 25.032 18.3563 25.0882 18.2562 25.1882C18.1562 25.2882 18.1 25.4239 18.1 25.5653C18.1 25.7067 18.1562 25.8424 18.2562 25.9424C18.3563 26.0424 18.4919 26.0986 18.6334 26.0986H27.7C27.8415 26.0986 27.9771 26.0424 28.0772 25.9424C28.1772 25.8424 28.2334 25.7067 28.2334 25.5653C28.2334 25.4239 28.1772 25.2882 28.0772 25.1882C27.9771 25.0882 27.8415 25.032 27.7 25.032Z" fill="white"/>
</svg>
