<svg width="45" height="45" viewBox="0 0 45 45" fill="none" xmlns="http://www.w3.org/2000/svg">
<path d="M20.2983 15.2009C20.4929 15.2009 20.6796 15.1236 20.8172 14.9863C20.9549 14.849 21.0322 14.6626 21.0322 14.4684V13.7359C21.0322 13.5416 20.9549 13.3553 20.8172 13.218C20.6796 13.0806 20.4929 13.0034 20.2983 13.0034C20.1037 13.0034 19.917 13.0806 19.7794 13.218C19.6418 13.3553 19.5644 13.5416 19.5644 13.7359V14.4684C19.5644 14.6626 19.6418 14.849 19.7794 14.9863C19.917 15.1236 20.1037 15.2009 20.2983 15.2009Z" fill="white"/>
<path d="M24.7017 15.2009C24.8963 15.2009 25.0831 15.1236 25.2207 14.9863C25.3583 14.849 25.4356 14.6626 25.4356 14.4684V13.7359C25.4356 13.5416 25.3583 13.3553 25.2207 13.218C25.0831 13.0806 24.8963 13.0034 24.7017 13.0034C24.5071 13.0034 24.3204 13.0806 24.1828 13.218C24.0452 13.3553 23.9678 13.5416 23.9678 13.7359V14.4684C23.9678 14.6626 24.0452 14.849 24.1828 14.9863C24.3204 15.1236 24.5071 15.2009 24.7017 15.2009Z" fill="white"/>
<path d="M25.2206 17.9162C25.3438 17.776 25.4088 17.5943 25.4024 17.408C25.3961 17.2217 25.3188 17.0448 25.1863 16.9134C25.0538 16.782 24.8761 16.7059 24.6894 16.7007C24.5026 16.6956 24.321 16.7617 24.1814 16.8856C23.7351 17.3299 23.1304 17.5794 22.5 17.5794C21.8696 17.5794 21.2649 17.3299 20.8186 16.8856C20.678 16.7675 20.4982 16.7063 20.3146 16.7142C20.131 16.7221 19.9571 16.7984 19.8271 16.9281C19.6972 17.0578 19.6208 17.2314 19.6129 17.4145C19.605 17.5978 19.6663 17.7773 19.7846 17.9176C20.5064 18.6367 21.4846 19.0405 22.5044 19.0405C23.5242 19.0405 24.5025 18.6367 25.2243 17.9176L25.2206 17.9162Z" fill="white"/>
<path d="M42.3154 34.9778H37.501C37.7679 34.5354 37.9099 34.0292 37.912 33.5128C37.9096 32.7819 37.632 32.0785 37.134 31.5425C37.1599 31.4694 37.1748 31.3929 37.1781 31.3154V29.8504C37.1752 28.7702 36.9059 27.7073 36.3939 26.7556C35.8819 25.8039 35.143 24.9926 34.2425 24.3935V22.5256C34.2407 21.9434 34.0082 21.3855 33.5957 20.9737C33.1831 20.562 32.6241 20.33 32.0407 20.3282H27.0649C27.7472 19.4865 28.1817 18.4721 28.3199 17.3983H28.3712C28.9546 17.3965 29.5136 17.1645 29.9261 16.7528C30.3387 16.341 30.5712 15.7831 30.5729 15.2009V14.4684C30.5712 13.8861 30.3387 13.3282 29.9261 12.9165C29.5136 12.5047 28.9546 12.2727 28.3712 12.2709V11.5385H29.1051C29.2998 11.5385 29.4865 11.4613 29.6241 11.3239C29.7617 11.1866 29.839 11.0002 29.839 10.806V6.79932L31.3068 6.27194V10.806C31.3068 11.0002 31.3841 11.1866 31.5218 11.3239C31.6594 11.4613 31.8461 11.5385 32.0407 11.5385C32.2354 11.5385 32.4221 11.4613 32.5597 11.3239C32.6973 11.1866 32.7746 11.0002 32.7746 10.806V5.74456L33.0755 5.63469C33.2172 5.58337 33.3396 5.48975 33.4261 5.36656C33.5127 5.24338 33.559 5.09659 33.559 4.94616C33.559 4.79573 33.5127 4.64895 33.4261 4.52576C33.3396 4.40257 33.2172 4.30895 33.0755 4.25763L22.7495 0.54396C22.5884 0.485347 22.4116 0.485347 22.2505 0.54396L11.9245 4.25763C11.7828 4.30895 11.6603 4.40257 11.5739 4.52576C11.4874 4.64895 11.441 4.79573 11.441 4.94616C11.441 5.09659 11.4874 5.24338 11.5739 5.36656C11.6603 5.48975 11.7828 5.58337 11.9245 5.63469L15.161 6.79932V10.806C15.161 11.0002 15.2383 11.1866 15.3759 11.3239C15.5136 11.4613 15.7003 11.5385 15.8949 11.5385H16.6288V12.2709C16.0454 12.2727 15.4864 12.5047 15.0739 12.9165C14.6613 13.3282 14.4288 13.8861 14.4271 14.4684V15.2009C14.4288 15.7831 14.6613 16.341 15.0739 16.7528C15.4864 17.1645 16.0454 17.3965 16.6288 17.3983H16.6802C16.8184 18.4721 17.2528 19.4865 17.9351 20.3282H12.9593C12.3759 20.33 11.8169 20.562 11.4044 20.9737C10.9918 21.3855 10.7593 21.9434 10.7576 22.5256V24.3935C9.857 24.9926 9.1181 25.8039 8.60613 26.7556C8.09409 27.7073 7.82482 28.7702 7.82196 29.8504V31.3154C7.82526 31.3929 7.84009 31.4694 7.86599 31.5425C7.36804 32.0785 7.09033 32.7819 7.08806 33.5128C7.09004 34.0292 7.23212 34.5354 7.49904 34.9778H2.68463C2.16829 34.9818 1.6698 35.1668 1.27627 35.5004C0.882754 35.834 0.619239 36.2951 0.531802 36.803C0.444365 37.3109 0.538561 37.8333 0.79793 38.279C1.05731 38.7246 1.46535 39.065 1.95073 39.2408V43.7675C1.95073 43.9618 2.02805 44.1481 2.16568 44.2855C2.30332 44.4229 2.48999 44.5 2.68463 44.5C2.87927 44.5 3.06595 44.4229 3.20357 44.2855C3.34121 44.1481 3.41853 43.9618 3.41853 43.7675V39.3727H41.5815V43.7675C41.5815 43.9618 41.6588 44.1481 41.7964 44.2855C41.934 44.4229 42.1208 44.5 42.3154 44.5C42.51 44.5 42.6967 44.4229 42.8343 44.2855C42.9719 44.1481 43.0493 43.9618 43.0493 43.7675V39.2408C43.5347 39.065 43.9427 38.7246 44.2021 38.279C44.4615 37.8333 44.5556 37.3109 44.4682 36.803C44.3807 36.2951 44.1173 35.834 43.7237 35.5004C43.3302 35.1668 42.8317 34.9818 42.3154 34.9778ZM16.6288 15.9333C16.4342 15.9333 16.2475 15.8562 16.1098 15.7188C15.9722 15.5814 15.8949 15.3951 15.8949 15.2009V14.4684C15.8949 14.2741 15.9722 14.0878 16.1098 13.9504C16.2475 13.8131 16.4342 13.7359 16.6288 13.7359V15.9333ZM34.2425 26.2686C35.1811 27.2257 35.7078 28.5111 35.7103 29.8504V30.6855C35.4708 30.6211 35.2243 30.5867 34.9764 30.5829H34.2425V26.2686ZM34.2425 32.0479H34.9764C35.3656 32.0479 35.739 32.2022 36.0142 32.4769C36.2895 32.7517 36.4442 33.1243 36.4442 33.5128C36.4442 33.9013 36.2895 34.274 36.0142 34.5487C35.739 34.8234 35.3656 34.9778 34.9764 34.9778H34.2425V32.0479ZM29.1051 14.4684V15.2009C29.1051 15.3951 29.0278 15.5814 28.8902 15.7188C28.7526 15.8562 28.5659 15.9333 28.3712 15.9333V13.7359C28.5659 13.7359 28.7526 13.8131 28.8902 13.9504C29.0278 14.0878 29.1051 14.2741 29.1051 14.4684ZM14.339 4.94616L22.5 2.00892L30.661 4.94616L22.5 7.88339L14.339 4.94616ZM16.6288 10.0735V7.32671L22.2505 9.34835C22.4116 9.40695 22.5884 9.40695 22.7495 9.34835L28.3712 7.32671V10.0735H16.6288ZM26.9034 11.5385V16.6658C26.9061 17.3937 26.7254 18.1107 26.3779 18.7507C26.0303 19.3906 25.5271 19.9331 24.9145 20.3282H20.0855C19.4729 19.9331 18.9697 19.3906 18.6221 18.7507C18.2746 18.1107 18.0939 17.3937 18.0966 16.6658V11.5385H26.9034ZM12.2254 22.5256C12.2254 22.3314 12.3027 22.145 12.4403 22.0077C12.5779 21.8704 12.7646 21.7932 12.9593 21.7932H32.0407C32.2354 21.7932 32.4221 21.8704 32.5597 22.0077C32.6973 22.145 32.7746 22.3314 32.7746 22.5256V34.9778H12.2254V22.5256ZM9.28976 29.8504C9.29218 28.5111 9.81891 27.2257 10.7576 26.2686V30.5829H10.0237C9.77575 30.5867 9.52924 30.6211 9.28976 30.6855V29.8504ZM10.0237 32.0479H10.7576V34.9778H10.0237C9.6344 34.9778 9.26099 34.8234 8.98578 34.5487C8.71049 34.274 8.55586 33.9013 8.55586 33.5128C8.55586 33.1243 8.71049 32.7517 8.98578 32.4769C9.26099 32.2022 9.6344 32.0479 10.0237 32.0479ZM42.3154 37.9077H2.68463C2.48999 37.9077 2.30332 37.8306 2.16568 37.6932C2.02805 37.5558 1.95073 37.3695 1.95073 37.1752C1.95073 36.981 2.02805 36.7946 2.16568 36.6573C2.30332 36.5199 2.48999 36.4427 2.68463 36.4427H42.3154C42.51 36.4427 42.6967 36.5199 42.8343 36.6573C42.9719 36.7946 43.0493 36.981 43.0493 37.1752C43.0493 37.3695 42.9719 37.5558 42.8343 37.6932C42.6967 37.8306 42.51 37.9077 42.3154 37.9077Z" fill="white"/>
<path d="M22.5 31.3154C22.9746 31.3155 23.442 31.2009 23.8624 30.9812C24.2828 30.7616 24.6436 30.4435 24.9139 30.0542C25.1841 29.665 25.3558 29.2161 25.4142 28.7461C25.4726 28.2761 25.416 27.799 25.2492 27.3556C25.1761 27.1807 25.0379 27.0409 24.8637 26.9656C24.6894 26.8903 24.4927 26.8852 24.3149 26.9516C24.137 27.018 23.9919 27.1506 23.9099 27.3215C23.8279 27.4924 23.8155 27.6884 23.8753 27.8683C23.9858 28.1604 23.9998 28.4801 23.9154 28.7807C23.831 29.0813 23.6526 29.3472 23.4062 29.5395C23.1597 29.7318 22.8582 29.8405 22.5455 29.8498C22.2329 29.8591 21.9254 29.7684 21.668 29.591C21.4106 29.4136 21.2167 29.1587 21.1146 28.8636C21.0125 28.5685 21.0075 28.2486 21.1005 27.9504C21.1933 27.6523 21.3792 27.3916 21.6309 27.2064C21.8827 27.0211 22.1872 26.9209 22.5 26.9205C22.6946 26.9205 22.8813 26.8433 23.019 26.706C23.1566 26.5686 23.2339 26.3823 23.2339 26.188C23.2339 25.9938 23.1566 25.8074 23.019 25.6701C22.8813 25.5328 22.6946 25.4556 22.5 25.4556C21.7214 25.4556 20.9747 25.7642 20.4242 26.3137C19.8737 26.8632 19.5644 27.6084 19.5644 28.3855C19.5644 29.1626 19.8737 29.9078 20.4242 30.4572C20.9747 31.0067 21.7214 31.3154 22.5 31.3154Z" fill="white"/>
</svg>
