<svg width="39" height="39" viewBox="0 0 39 39" fill="none" xmlns="http://www.w3.org/2000/svg">
<path d="M2.75994 0.455828C2.38235 1.9055 1.47107 2.9844 0.393942 3.39313C-0.13344 3.59557 -0.127706 4.33085 0.393942 4.5309C1.47144 4.93808 2.3858 6.01539 2.76471 7.46463C2.92431 8.07008 3.78324 8.07008 3.94296 7.46463C4.32055 6.01498 5.2366 4.93486 6.31373 4.52615C6.83459 4.32417 6.83118 3.58636 6.30682 3.38836C5.22932 2.9812 4.3197 1.90509 3.9408 0.455828C3.87055 0.188878 3.6299 0.00113054 3.35276 2.02703e-06C3.07396 -0.000711928 2.83062 0.187242 2.75994 0.455828ZM18.2807 2.02703e-06C17.9943 0.000854166 17.7472 0.201061 17.6868 0.480816L15.8563 9.01421C15.7778 9.39325 16.0678 9.74854 16.455 9.74732H19.4994V14.6234C19.4994 15.0695 19.615 15.4834 19.8251 15.8445C14.8376 15.8439 9.86355 15.8433 4.87603 15.8433C2.1859 15.8433 0 18.0134 0 20.7169V23.1544C0 25.0016 1.0151 26.5938 2.51241 27.4222C1.01538 28.2515 0 29.8437 0 31.6854V34.1228C0 36.8343 2.1859 39 4.87603 39H28.6421C28.9788 38.9988 29.2504 38.7237 29.2491 38.3871V35.9544C29.2504 35.6178 28.9788 35.3439 28.6421 35.3427H28.028V30.4678H28.6397C28.9746 30.4667 29.2455 30.1945 29.2467 29.8597C29.2466 28.2335 29.249 26.612 29.249 24.9864C29.2503 24.6497 28.9787 24.3758 28.642 24.3747H28.0279V19.4998H28.6396C28.9745 19.4986 29.2454 19.2265 29.2466 18.8916V17.0624H32.9039C34.2606 17.0624 35.3426 15.9635 35.3426 14.6238V9.74772H36.5614V17.0624H35.9544C35.616 17.0611 35.3414 17.3357 35.3427 17.6741V21.9384C35.344 22.2749 35.6179 22.5467 35.9544 22.5454H38.3871C38.724 22.5473 38.9986 22.2754 39 21.9384V17.6741C39.0013 17.3353 38.7259 17.0604 38.3871 17.0624H37.7801V9.74772H38.3871C38.7742 9.74893 39.0643 9.39364 38.9857 9.0146L37.1553 0.481207C37.0949 0.201337 36.8477 0.00124569 36.5614 0.000393551L18.2807 2.02703e-06ZM18.771 1.21872H36.0663L36.7197 4.26431H29.7228C29.5788 3.95494 29.3333 3.69006 29.0539 3.50381C28.6041 3.20391 28.0166 3.04679 27.421 3.04679C26.8255 3.04679 26.238 3.20386 25.7881 3.50381C25.3383 3.8037 24.9824 4.29253 24.9824 4.87606C24.9824 5.45957 25.3383 5.94363 25.7881 6.24354C26.238 6.54342 26.8064 6.70173 27.421 6.70173C28.0356 6.70173 28.6041 6.54351 29.0539 6.24354C29.3342 6.05675 29.5802 5.79236 29.724 5.48304H36.9815L37.6361 8.53337H17.206L18.771 1.21872ZM10.9684 3.65377C10.6962 3.65494 10.4574 3.83525 10.3841 4.09769C10.0586 5.2434 9.27353 6.09943 8.32864 6.42801C7.78236 6.61756 7.78236 7.38941 8.32864 7.57888C9.27316 7.90871 10.0549 8.76792 10.3793 9.91395C10.4622 10.2116 10.7159 10.3595 10.9684 10.3591C11.2209 10.3595 11.4745 10.2114 11.5575 9.91395C11.8819 8.76792 12.6636 7.90871 13.6082 7.57888C14.1544 7.38934 14.1544 6.61749 13.6082 6.42801C12.6633 6.09943 11.8782 5.2434 11.5528 4.09769C11.4793 3.83518 11.2406 3.65494 10.9684 3.65377ZM5.50682 8.97492C5.22672 9.97648 4.55922 10.7173 3.76086 10.9994C3.21457 11.1889 3.21457 11.962 3.76086 12.1514C4.55892 12.4345 5.22527 13.1776 5.50443 14.1794C5.58618 14.4728 5.83978 14.6208 6.08879 14.6246V14.6258C6.09042 14.6258 6.09109 14.6246 6.09339 14.6246C6.09503 14.6246 6.0957 14.6258 6.098 14.6258V14.6246C6.34703 14.6199 6.60055 14.4728 6.68236 14.1794C6.96151 13.1776 7.62786 12.4345 8.42593 12.1514C8.97224 11.9619 8.97224 11.1888 8.42593 10.9994C7.62757 10.7173 6.96009 9.97648 6.67999 8.97492C6.60721 8.71474 6.3673 8.53531 6.0934 8.531C5.81951 8.53563 5.57955 8.71478 5.50682 8.97492ZM4.87603 17.062H28.0304V18.2783C20.3122 18.2806 12.5965 18.2783 4.87603 18.2783C3.53624 18.2783 2.43861 19.3581 2.43861 20.7169V23.1544C2.43861 24.4941 3.51242 25.593 4.87603 25.593H20.7193V26.8117H4.87603C2.85425 26.8117 1.2187 25.1904 1.2187 23.1544V20.7169C1.2187 18.6977 2.83997 17.0623 4.87603 17.062ZM4.87603 19.4994C9.05259 19.4984 13.2137 19.4991 17.3893 19.4994C17.1778 19.8601 17.062 20.2737 17.062 20.7193V21.3275H14.6245C13.8112 21.3282 13.8112 22.5469 14.6245 22.5462H20.7193V24.3743H4.87603C4.20461 24.3743 3.65731 23.84 3.65731 23.1544V21.9368H6.7029C7.51628 21.9376 7.51628 20.7188 6.7029 20.7181L3.65731 20.7175C3.65731 20.0503 4.19031 19.4994 4.87603 19.4994ZM19.4994 19.4994C20.1684 19.4994 20.7193 20.0336 20.7193 20.7193V21.3263H18.2807V20.7193C18.2807 20.0336 18.8303 19.4994 19.4994 19.4994ZM25.2692 19.4994C25.7881 19.4994 26.2951 19.4994 26.814 19.4994V24.3743H25.5953V20.7193C25.5953 20.2737 25.4786 19.8601 25.2692 19.4994ZM9.14034 21.9368C8.32765 21.9368 8.32765 23.1556 9.14034 23.1556H12.1871C12.9998 23.1556 12.9998 21.9368 12.1871 21.9368H9.14034ZM25.5953 25.593H28.0304V26.8117H25.5953V25.593ZM4.86412 28.0316C4.86873 28.0316 4.87103 28.0316 4.87564 28.0316H20.7189V29.2467H4.87564C3.53585 29.2467 2.43822 30.3265 2.43822 31.6854V34.1228C2.43822 35.4626 3.51203 36.5614 4.87564 36.5614H28.03V37.7801H4.87564C2.85386 37.7801 1.21831 36.1588 1.21831 34.1228V31.6854C1.21831 29.6702 2.83336 28.0383 4.86373 28.0316H4.86412ZM25.5953 28.0316H28.0304V29.2467L25.5953 29.249V28.0316ZM20.7193 30.4666V31.6854C20.7198 32.1702 21.2581 32.4603 21.6631 32.1936L23.1567 31.1998L24.6456 32.1936C25.0513 32.466 25.5972 32.1751 25.5953 31.6854V30.4678H26.814V35.3427H4.87603C4.20501 35.3427 3.65796 34.8091 3.65731 34.124H7.92162C8.735 34.1247 8.735 32.906 7.92162 32.9052H3.65731V31.6854C3.65731 31.0187 4.19031 30.4679 4.87603 30.4678L20.7193 30.4666ZM10.359 31.6866C9.54638 31.6866 9.54638 32.9052 10.359 32.9052H13.4058C14.2185 32.9052 14.2185 31.6866 13.4058 31.6866H10.359ZM15.8432 32.9052C15.0306 32.9052 15.0306 34.124 15.8432 34.124H18.89C19.7027 34.124 19.7027 32.9052 18.89 32.9052H15.8432Z" fill="white"/>
</svg>
