<svg xmlns="http://www.w3.org/2000/svg" width="64" height="56" viewBox="0 0 64 56">
  <defs>
    <style>
      .cls-1 {
        fill: #fff;
      }

      .cls-2 {
        fill: #bdd3dd;
      }

      .cls-3 {
        fill: #1f3b64;
      }
    </style>
  </defs>
  <g id="pin" transform="translate(0 -4)">
    <path id="Path_2439" data-name="Path 2439" class="cls-1" d="M62.667,18.667v32A2.675,2.675,0,0,1,60,53.333H41.333L36,58.667V53.333H17.333a2.675,2.675,0,0,1-2.667-2.667v-8H24V48l5.333-5.333H46.667A2.675,2.675,0,0,0,49.333,40V16H60A2.675,2.675,0,0,1,62.667,18.667Z"/>
    <path id="Path_2440" data-name="Path 2440" class="cls-2" d="M49.333,16V40a2.675,2.675,0,0,1-2.667,2.667H29.333L24,48V42.667H4A2.675,2.675,0,0,1,1.333,40V8A2.675,2.675,0,0,1,4,5.333H46.667A2.675,2.675,0,0,1,49.333,8v8Z"/>
    <g id="Group_1804" data-name="Group 1804">
      <path id="Path_2441" data-name="Path 2441" class="cls-3" d="M36,60a1.333,1.333,0,0,1-1.333-1.333v-4H17.333a4,4,0,0,1-4-4v-4H16v4A1.333,1.333,0,0,0,17.333,52H36a1.333,1.333,0,0,1,1.333,1.333v2.115l3.057-3.057A1.333,1.333,0,0,1,41.333,52H60a1.333,1.333,0,0,0,1.333-1.333v-32A1.333,1.333,0,0,0,60,17.333H53.333V14.667H60a4,4,0,0,1,4,4v32a4,4,0,0,1-4,4H41.885l-4.943,4.943A1.334,1.334,0,0,1,36,60Z"/>
      <path id="Path_2442" data-name="Path 2442" class="cls-3" d="M24,49.333A1.333,1.333,0,0,1,22.667,48V44H4a4,4,0,0,1-4-4V8A4,4,0,0,1,4,4H46.667a4,4,0,0,1,4,4V40a4,4,0,0,1-4,4H29.885l-4.943,4.943a1.334,1.334,0,0,1-.943.391ZM4,6.667A1.333,1.333,0,0,0,2.667,8V40A1.333,1.333,0,0,0,4,41.333H24a1.333,1.333,0,0,1,1.333,1.333v2.115l3.057-3.057a1.333,1.333,0,0,1,.943-.391H46.667A1.333,1.333,0,0,0,48,40V8a1.333,1.333,0,0,0-1.333-1.333Z"/>
      <path id="Path_2443" data-name="Path 2443" class="cls-3" d="M6.667,14.667H21.333v2.667H6.667Z"/>
      <path id="Path_2444" data-name="Path 2444" class="cls-3" d="M6.667,22.667H44v2.667H6.667Z"/>
      <path id="Path_2445" data-name="Path 2445" class="cls-3" d="M6.667,30.667H44v2.667H6.667Z"/>
      <path id="Path_2446" data-name="Path 2446" class="cls-3" d="M41.333,14.667H44v2.667H41.333Z"/>
      <path id="Path_2447" data-name="Path 2447" class="cls-3" d="M36,14.667h2.667v2.667H36Z"/>
    </g>
  </g>
</svg>
