<svg xmlns="http://www.w3.org/2000/svg" width="56" height="64" viewBox="0 0 56 64">
    <g transform="translate(-4)">
        <path data-name="Path 2456" d="M53.333 12h-8a2.675 2.675 0 0 1-2.667-2.667v-8z" style="fill:#bdd3dd"/>
        <path data-name="Path 2457" d="M53.333 12v48a2.675 2.675 0 0 1-2.667 2.667H8A2.675 2.675 0 0 1 5.333 60V4A2.675 2.675 0 0 1 8 1.333h34.667v8A2.675 2.675 0 0 0 45.333 12z" style="fill:#fff"/>
        <path data-name="Path 2458" d="M46.667 49.333a2.667 2.667 0 1 0 2.667-2.667h9.333V60A2.675 2.675 0 0 1 56 62.667H42.667A2.675 2.675 0 0 1 40 60V46.667h9.333a2.675 2.675 0 0 0-2.666 2.666z" style="fill:#bdd3dd"/>
        <circle data-name="Ellipse 382" cx="2.667" cy="2.667" r="2.667" transform="translate(46.667 46.667)" style="fill:#fff"/>
        <g data-name="Group 1807">
            <path data-name="Path 2459" d="M12 8h13.333v2.667H12z" style="fill:#1f3b64"/>
            <path data-name="Path 2460" d="M12 13.333h2.667V16H12z" style="fill:#1f3b64"/>
            <path data-name="Path 2461" d="M17.333 13.333H20V16h-2.667v-2.667z" style="fill:#1f3b64"/>
            <path data-name="Path 2462" d="M6.667 60V4A1.333 1.333 0 0 1 8 2.667h33.333v6.666a4 4 0 0 0 4 4H48v-2.666h-2.667A1.333 1.333 0 0 1 44 9.333V4.552l8 8v18.115h2.667V12a1.334 1.334 0 0 0-.391-.943L43.609.391A1.333 1.333 0 0 0 42.667 0H8a4 4 0 0 0-4 4v56a4 4 0 0 0 4 4h26.667v-2.667H8A1.333 1.333 0 0 1 6.667 60z" style="fill:#1f3b64"/>
            <path data-name="Path 2463" d="M45.333 34.667a2.612 2.612 0 0 0-2.667 2.556v5.444h2.667v-5.334h8v5.333H56v-5.333a2.612 2.612 0 0 0-2.556-2.667h-8.111z" style="fill:#1f3b64"/>
            <path data-name="Path 2464" d="M58.667 45.333h-4V48h2.667v12A1.333 1.333 0 0 1 56 61.333H42.667A1.333 1.333 0 0 1 41.333 60V48H44v-2.667h-4a1.333 1.333 0 0 0-1.333 1.333V60a4 4 0 0 0 4 4H56a4 4 0 0 0 4-4V46.667a1.333 1.333 0 0 0-1.333-1.334z" style="fill:#1f3b64"/>
            <path data-name="Path 2465" d="M50.667 58.667v-5.579a4 4 0 1 0-2.667 0v5.579zM49.333 48A1.333 1.333 0 1 1 48 49.333 1.333 1.333 0 0 1 49.333 48z" style="fill:#1f3b64"/>
        </g>
    </g>
</svg>
