<svg xmlns="http://www.w3.org/2000/svg" width="64" height="64" viewBox="0 0 64 64">
    <path data-name="Path 2448" d="M62.667 12v45.333a5.333 5.333 0 0 1-5.333 5.333H6.667a5.333 5.333 0 0 1-5.333-5.333V12z" style="fill:#fff"/>
    <g data-name="Group 1805">
        <path data-name="Path 2449" d="M62.667 6.667V12H1.333V6.667a5.333 5.333 0 0 1 5.334-5.334h50.666a5.333 5.333 0 0 1 5.334 5.334z" style="fill:#bdd3dd"/>
        <circle data-name="Ellipse 381" cx="17.333" cy="17.333" r="17.333" transform="translate(14.667 20)" style="fill:#bdd3dd"/>
        <path data-name="Icon ionic-md-close" d="m19.523 8.723-1.2-1.2-4.8 4.8-4.8-4.8-1.2 1.2 4.8 4.8-4.8 4.8 1.2 1.2 4.8-4.8 4.8 4.8 1.2-1.2-4.8-4.8z" transform="translate(18.477 23.477)" style="fill:#1f3b64"/>
    </g>
    <g data-name="Group 1806">
        <path data-name="Path 2450" d="M57.333 0H6.667A6.675 6.675 0 0 0 0 6.667v50.666A6.675 6.675 0 0 0 6.667 64h50.666A6.675 6.675 0 0 0 64 57.333V6.667A6.674 6.674 0 0 0 57.333 0zm4 57.333a4 4 0 0 1-4 4H6.667a4 4 0 0 1-4-4V6.667a4 4 0 0 1 4-4h50.666a4 4 0 0 1 4 4v50.666z" style="fill:#1f3b64"/>
        <path data-name="Path 2451" d="M5.333 10.667h53.334v2.667H5.333z" style="fill:#1f3b64"/>
        <path data-name="Path 2452" d="M6.667 5.333h2.666V8H6.667z" style="fill:#1f3b64"/>
        <path data-name="Path 2453" d="M12 5.333h2.667V8H12z" style="fill:#1f3b64"/>
        <path data-name="Path 2454" d="M54.667 5.333h2.667V8h-2.667z" style="fill:#1f3b64"/>
        <path data-name="Path 2455" d="M32 18.667a18.667 18.667 0 1 0 18.667 18.666A18.667 18.667 0 0 0 32 18.667zm0 34.667a16 16 0 1 1 16-16 16 16 0 0 1-16 15.999z" style="fill:#1f3b64"/>
    </g>
</svg>
