<svg xmlns="http://www.w3.org/2000/svg" version="1.1" xmlns:xlink="http://www.w3.org/1999/xlink"  width="512" height="512" x="0" y="0" viewBox="0 0 512 512" style="enable-background:new 0 0 512 512" xml:space="preserve" class=""><g>
<circle xmlns="http://www.w3.org/2000/svg" style="" cx="256" cy="256" r="192" fill="#bdd3dd" data-original="#87d2f3" class=""></circle>
<path xmlns="http://www.w3.org/2000/svg" style="" d="M256,10.667c135.494,0,245.333,109.839,245.333,245.333S391.494,501.333,256,501.333  S10.667,391.494,10.667,256S120.506,10.667,256,10.667z M448,256c0-106.039-85.961-192-192-192S64,149.961,64,256  s85.961,192,192,192S448,362.039,448,256z" fill="#ffffff" data-original="#ffffff" class=""></path>
<g xmlns="http://www.w3.org/2000/svg">
	<path style="" d="M256,0C114.615,0,0,114.615,0,256s114.615,256,256,256s256-114.615,256-256   C511.835,114.683,397.317,0.165,256,0z M256,490.667C126.397,490.667,21.333,385.603,21.333,256S126.397,21.333,256,21.333   S490.667,126.397,490.667,256C490.52,385.542,385.542,490.52,256,490.667z" fill="#1f3b64" data-original="#2170a6" class=""></path>
	<path style="" d="M256,53.333C144.07,53.333,53.333,144.07,53.333,256S144.07,458.667,256,458.667   S458.667,367.93,458.667,256C458.543,144.121,367.879,53.457,256,53.333z M436.789,266.667   c-2.146,38.05-16.295,74.441-40.416,103.947l-26.165-26.155l-15.083,15.083l26.741,26.72   c-31.098,30.113-71.983,48.046-115.2,50.528v-42.123h-21.333v42.123c-43.217-2.482-84.102-20.415-115.2-50.528l26.72-26.72   l-15.083-15.083l-26.144,26.155c-24.121-29.506-38.27-65.897-40.416-103.947h42.123v-21.333H75.211   c2.146-38.05,16.295-74.441,40.416-103.947l26.165,26.155l15.083-15.083l-26.72-26.667c31.084-30.128,71.962-48.08,115.179-50.581   v42.123h21.333V75.211c43.217,2.482,84.102,20.415,115.2,50.528l-26.72,26.667l15.083,15.083l26.165-26.155   c24.124,29.523,38.266,65.934,40.395,104h-42.123v21.333H436.789z" fill="#1f3b64" data-original="#2170a6" class=""></path>
	<path style="" d="M266.667,160h-21.333v96c0.001,2.829,1.125,5.541,3.125,7.541l64,64l15.083-15.083l-60.875-60.875   V160z" fill="#1f3b64" data-original="#2170a6" class=""></path>
</g>
<g xmlns="http://www.w3.org/2000/svg">
</g>
<g xmlns="http://www.w3.org/2000/svg">
</g>
<g xmlns="http://www.w3.org/2000/svg">
</g>
<g xmlns="http://www.w3.org/2000/svg">
</g>
<g xmlns="http://www.w3.org/2000/svg">
</g>
<g xmlns="http://www.w3.org/2000/svg">
</g>
<g xmlns="http://www.w3.org/2000/svg">
</g>
<g xmlns="http://www.w3.org/2000/svg">
</g>
<g xmlns="http://www.w3.org/2000/svg">
</g>
<g xmlns="http://www.w3.org/2000/svg">
</g>
<g xmlns="http://www.w3.org/2000/svg">
</g>
<g xmlns="http://www.w3.org/2000/svg">
</g>
<g xmlns="http://www.w3.org/2000/svg">
</g>
<g xmlns="http://www.w3.org/2000/svg">
</g>
<g xmlns="http://www.w3.org/2000/svg">
</g>
</g></svg>