<svg xmlns="http://www.w3.org/2000/svg" version="1.1" xmlns:xlink="http://www.w3.org/1999/xlink"  width="64" height="64" x="0" y="0" viewBox="0 0 512.037 512.037" style="enable-background:new 0 0 512 512" xml:space="preserve" class=""><g><g xmlns="http://www.w3.org/2000/svg"><path d="m126.51 333.895h259.016c8.284 0 15-6.716 15-15v-177.504c0-8.284-6.716-15-15-15h-61.456v-53.056c0-8.284-6.716-15-15-15h-106.103c-8.284 0-15 6.716-15 15v53.056h-61.457c-8.284 0-15 6.716-15 15v177.504c0 8.284 6.716 15 15 15zm15-30v-83.766l10.078 11.655c2.85 3.296 6.99 5.189 11.347 5.189h78.083v2.223c0 8.284 6.716 15 15 15s15-6.716 15-15v-2.223h77.895c4.343 0 8.473-1.882 11.321-5.16l10.292-11.842v83.923h-229.016zm76.457-215.56h76.103v38.056h-76.103zm-76.457 68.056h229.016v17.85l-28.45 32.733h-71.058v-2.222c0-8.284-6.716-15-15-15s-15 6.716-15 15v2.222h-71.224l-28.285-32.712v-17.871z" fill="#1f3b64" data-original="#000000" class=""></path><path d="m512.019 30.328c.277-7.888-2.559-15.365-8.015-21.099-5.57-5.853-13.434-9.211-21.574-9.211h-452.822c-8.14 0-16.004 3.357-21.574 9.211-5.457 5.734-8.293 13.211-8.015 21.099v393.064c-.278 7.888 2.559 15.365 8.015 21.099 5.57 5.853 13.434 9.211 21.574 9.211h166.463v28.316h-34.799c-8.284 0-15 6.716-15 15s6.716 15 15 15h189.494c8.284 0 15-6.716 15-15s-6.716-15-15-15h-34.799v-28.316h166.463c8.141 0 16.004-3.357 21.574-9.211 5.456-5.733 8.292-13.211 8.015-21.099zm-30-.309v333.851h-452v-333.851zm-196.052 452h-59.896v-28.316h59.896zm-255.948-58.318v-29.832h452v29.833z" fill="#1f3b64" data-original="#000000" class=""></path></g></g></svg>