<svg xmlns="http://www.w3.org/2000/svg" version="1.1" xmlns:xlink="http://www.w3.org/1999/xlink"  width="512" height="512" x="0" y="0" viewBox="0 0 512 512" style="enable-background:new 0 0 512 512" xml:space="preserve" class=""><g>
<path xmlns="http://www.w3.org/2000/svg" style="" d="M501.333,96v362.667c0,23.564-19.103,42.667-42.667,42.667H53.333  c-23.564,0-42.667-19.103-42.667-42.667V96H501.333z" fill="#ffffff" data-original="#ffffff" class=""></path>
<path xmlns="http://www.w3.org/2000/svg" style="" d="M501.333,53.333V96H10.667V53.333c0-23.564,19.103-42.667,42.667-42.667h405.333  C482.231,10.667,501.333,29.769,501.333,53.333z" fill="#bdd3dd" data-original="#87d2f3" class=""></path>
<path xmlns="http://www.w3.org/2000/svg" style="" d="M298.667,277.333L224,320v-85.333L298.667,277.333z" fill="#ffffff" data-original="#ffffff" class=""></path>
<path xmlns="http://www.w3.org/2000/svg" style="" d="M448,170.667V384H64V170.667c0.035-11.767,9.566-21.298,21.333-21.333h341.333  C438.434,149.368,447.965,158.899,448,170.667z M224,320l74.667-42.667L224,234.667V320z" fill="#bdd3dd" data-original="#87d2f3" class=""></path>
<g xmlns="http://www.w3.org/2000/svg">
	<path style="" d="M458.667,0H53.333C23.893,0.035,0.035,23.893,0,53.333v405.333   C0.035,488.107,23.893,511.965,53.333,512h405.333c29.441-0.035,53.298-23.893,53.333-53.333V53.333   C511.965,23.893,488.107,0.035,458.667,0z M490.667,458.667c0,17.673-14.327,32-32,32H53.333c-17.673,0-32-14.327-32-32V53.333   c0-17.673,14.327-32,32-32h405.333c17.673,0,32,14.327,32,32V458.667z" fill="#1f3b64" data-original="#2170a6" class=""></path>
	<path style="" d="M42.667,85.333h426.667v21.333H42.667V85.333z" fill="#1f3b64" data-original="#2170a6" class=""></path>
	<path style="" d="M53.333,42.667h21.333V64H53.333V42.667z" fill="#1f3b64" data-original="#2170a6" class=""></path>
	<path style="" d="M96,42.667h21.333V64H96V42.667z" fill="#1f3b64" data-original="#2170a6" class=""></path>
	<path style="" d="M437.333,42.667h21.333V64h-21.333V42.667z" fill="#1f3b64" data-original="#2170a6" class=""></path>
	<path style="" d="M53.333,416h21.333v21.333H53.333V416z" fill="#1f3b64" data-original="#2170a6" class=""></path>
	<path style="" d="M96,416h21.333v21.333H96V416z" fill="#1f3b64" data-original="#2170a6" class=""></path>
	<path style="" d="M437.333,416h21.333v21.333h-21.333V416z" fill="#1f3b64" data-original="#2170a6" class=""></path>
	<path style="" d="M224,394.667h-21.333V416h-64v21.333h64v21.333H224v-21.333h192V416H224V394.667z" fill="#1f3b64" data-original="#2170a6" class=""></path>
	<path style="" d="M426.667,138.667H85.333c-17.673,0-32,14.327-32,32V384h21.333V170.667   c0-5.891,4.776-10.667,10.667-10.667h341.333c5.891,0,10.667,4.776,10.667,10.667V384h21.333V170.667   C458.667,152.994,444.34,138.667,426.667,138.667z" fill="#1f3b64" data-original="#2170a6" class=""></path>
	<path style="" d="M224,330.667c1.87,0.006,3.71-0.479,5.333-1.408L304,286.592c5.113-2.925,6.887-9.442,3.962-14.555   c-0.944-1.65-2.312-3.018-3.962-3.962l-74.667-42.667c-5.102-2.946-11.625-1.198-14.571,3.904c-0.94,1.628-1.433,3.475-1.429,5.354   V320C213.333,325.891,218.109,330.667,224,330.667z M234.667,253.045l42.496,24.288l-42.496,24.277V253.045z" fill="#1f3b64" data-original="#2170a6" class=""></path>
</g>
<g xmlns="http://www.w3.org/2000/svg">
</g>
<g xmlns="http://www.w3.org/2000/svg">
</g>
<g xmlns="http://www.w3.org/2000/svg">
</g>
<g xmlns="http://www.w3.org/2000/svg">
</g>
<g xmlns="http://www.w3.org/2000/svg">
</g>
<g xmlns="http://www.w3.org/2000/svg">
</g>
<g xmlns="http://www.w3.org/2000/svg">
</g>
<g xmlns="http://www.w3.org/2000/svg">
</g>
<g xmlns="http://www.w3.org/2000/svg">
</g>
<g xmlns="http://www.w3.org/2000/svg">
</g>
<g xmlns="http://www.w3.org/2000/svg">
</g>
<g xmlns="http://www.w3.org/2000/svg">
</g>
<g xmlns="http://www.w3.org/2000/svg">
</g>
<g xmlns="http://www.w3.org/2000/svg">
</g>
<g xmlns="http://www.w3.org/2000/svg">
</g>
</g></svg>