<svg data-name="Iconly/Bold/Play" xmlns="http://www.w3.org/2000/svg" width="40" height="40" viewBox="0 0 40 40">
    <path data-name="Play" d="M16.667 33.333a16.667 16.667 0 1 1 16.666-16.656 16.68 16.68 0 0 1-16.666 16.656zm-1.9-23.283a2.231 2.231 0 0 0-1.014.242 2.086 2.086 0 0 0-.9 1 10.524 10.524 0 0 0-.29 1.175 25.651 25.651 0 0 0-.273 4.2 29.529 29.529 0 0 0 .241 4.068 1.829 1.829 0 0 1 .04.183 6.518 6.518 0 0 0 .346 1.28 2.017 2.017 0 0 0 1.783 1.085h.064a5.313 5.313 0 0 0 1.5-.45 24.545 24.545 0 0 0 6.419-4.374l.1-.1a6.566 6.566 0 0 0 .45-.515 1.935 1.935 0 0 0 .385-1.171 2.029 2.029 0 0 0-.418-1.253c-.02-.02-.057-.061-.106-.114a14.355 14.355 0 0 0-.424-.449 24.628 24.628 0 0 0-6.57-4.438 5.593 5.593 0 0 0-1.331-.369z" style="fill:#fff" transform="translate(3.333 3.333)"/>
</svg>
