<svg xmlns="http://www.w3.org/2000/svg" width="20" height="17.5" viewBox="0 0 20 17.5">
    <path data-name="Icon awesome-quote-right" d="M18.125 1.25h-5a1.875 1.875 0 0 0-1.875 1.875v5A1.875 1.875 0 0 0 13.125 10h3.125v2.5a2.5 2.5 0 0 1-2.5 2.5h-.312a.935.935 0 0 0-.937.938v1.875a.935.935 0 0 0 .938.938h.313A6.248 6.248 0 0 0 20 12.5V3.125a1.875 1.875 0 0 0-1.875-1.875zm-11.25 0h-5A1.875 1.875 0 0 0 0 3.125v5A1.875 1.875 0 0 0 1.875 10H5v2.5A2.5 2.5 0 0 1 2.5 15h-.312a.935.935 0 0 0-.937.938v1.875a.935.935 0 0 0 .938.938H2.5A6.248 6.248 0 0 0 8.75 12.5V3.125A1.875 1.875 0 0 0 6.875 1.25z" transform="translate(0 -1.25)" style="fill:#818894;opacity:.5"/>
</svg>
