<svg xmlns="http://www.w3.org/2000/svg" xmlns:xlink="http://www.w3.org/1999/xlink" width="86.752" height="62.31" viewBox="0 0 86.752 62.31">
    <defs>
        <linearGradient id="mhmg8k0d4a" x1=".012" y1=".515" x2="1.017" y2=".515" gradientUnits="objectBoundingBox">
            <stop offset="0" stop-color="#ff66a9"/>
            <stop offset="1" stop-color="#f53689"/>
        </linearGradient>
        <linearGradient id="xsd1sj9d3b" x1="-.002" y1=".527" x2=".954" y2=".527" xlink:href="#mhmg8k0d4a"/>
        <linearGradient id="oqn20vy3qc" y1=".5" x2="1.001" y2=".5" gradientUnits="objectBoundingBox">
            <stop offset="0" stop-color="#d5dae8"/>
            <stop offset="1" stop-color="#9aa3ba"/>
        </linearGradient>
        <linearGradient id="txjbrwmedd" x1=".414" y1=".993" x2=".563" y2=".016" xlink:href="#mhmg8k0d4a"/>
        <linearGradient id="vf2c8krake" x1="1.222" y1="1.398" x2="-1.459" y2="-2.539" gradientUnits="objectBoundingBox">
            <stop offset=".011" stop-color="#c2d1ff"/>
            <stop offset="1" stop-color="#fff"/>
        </linearGradient>
    </defs>
    <g data-name="Group 1621">
        <g data-name="9">
            <path d="M28.949 58.1A29.048 29.048 0 1 0 0 29.048 29 29 0 0 0 28.949 58.1z" transform="translate(15.155 4.214)" style="opacity:.5;fill:#eaeef9"/>
            <path data-name="Path" d="M3.707 3.861A2.218 2.218 0 0 0 .72.581a2.218 2.218 0 0 0 2.987 3.28z" transform="translate(73.517 15.14)" style="fill:#eaeef9"/>
            <path data-name="Path" d="M1.907 2.851a1.461 1.461 0 1 0-1.835-.938 1.462 1.462 0 0 0 1.835.938z" transform="translate(25.467 3.856)" style="fill:#eaeef9"/>
            <path data-name="Path" d="M1.3 1.939A.993.993 0 1 0 .049 1.3a.994.994 0 0 0 1.251.639z" transform="translate(29.256 .001)" style="fill:#eaeef9"/>
            <path data-name="Path" d="M1.56 1.625A.934.934 0 0 0 .3.244a.934.934 0 0 0 1.26 1.381z" transform="translate(75.83 7.419)" style="fill:#eaeef9"/>
            <path data-name="Path" d="M1.073 1.117A.642.642 0 0 0 .208.168a.642.642 0 0 0 .865.949z" transform="translate(53.325 .955)" style="fill:#eaeef9"/>
            <path data-name="Path" d="M.873.585V.409L.99.117C.99.058.99.058.932 0H.873l-.29.117H.408L.117 0C.058 0 .058 0 0 .058v.059l.117.292v.176L0 .877c0 .058 0 .058.058.117h.059L.408.877h.175l.29.117c.059 0 .059 0 .117-.059V.877z" transform="translate(51.429 1.829)" style="fill:url(#mhmg8k0d4a)"/>
            <path data-name="Path" d="M.1.76.329.642H.5L.737.76H.8V.7L.679.467V.292L.8.058V0H.737L.5.117H.329L.1 0H.038v.058l.116.234v.175L.038.7C-.02.76-.02.76.1.76z" transform="translate(45.158 .543)" style="fill:url(#xsd1sj9d3b)"/>
            <path data-name="Path" d="M52.6 44.361H0L9.611 0h52.656z" transform="translate(7.699 12.806)" style="fill:#fff"/>
            <path data-name="Path" d="M52.6 44.361H0L9.611 0h52.656z" transform="translate(7.699 12.806)" style="fill:#d5dae8"/>
            <path data-name="Path" d="M14.393 44.361H3.5a3.515 3.515 0 0 1-3.494-3.682L1.754 0h2.621z" transform="translate(15.556 12.806)" style="fill:url(#oqn20vy3qc)"/>
            <path data-name="Path" d="M64.19 44.361h-52.6L2.679 10.286l-.058-.233L0 0h52.656l2.272 8.708.349 1.344.058.233z" transform="translate(17.31 12.806)" style="fill:#fff"/>
            <path data-name="Path" d="M55.277 10.053H2.621L0 0h52.656l2.272 8.708z" transform="translate(17.31 12.806)" style="fill:#f3f5fa"/>
            <path data-name="Path" d="M1.864 3.741A1.871 1.871 0 1 0 0 1.871a1.867 1.867 0 0 0 1.864 1.87z" transform="translate(29.309 16.254)" style="fill:#172d45;opacity:.3"/>
            <path data-name="Path" d="M1.864 3.741A1.871 1.871 0 1 0 0 1.871a1.868 1.868 0 0 0 1.864 1.87z" transform="translate(60.064 16.254)" style="fill:#172d45;opacity:.3"/>
            <path data-name="Path" d="M3.96 11.69a.643.643 0 0 1 0-1.286c1.282 0 2.622-1.812 2.622-4.559v-.234c-.058-2.689-1.4-4.325-2.622-4.325-1.164 0-2.446 1.578-2.621 4.033H0C.175 2.279 1.864 0 3.9 0c2.155 0 3.844 2.513 3.96 5.728V5.9c.062 3.217-1.686 5.79-3.9 5.79z" transform="translate(26.746 7.195)" style="fill:#1c3754"/>
            <path data-name="Path" d="M3.96 11.69a.643.643 0 0 1 0-1.286c1.282 0 2.621-1.812 2.621-4.559v-.234c-.058-2.689-1.4-4.325-2.621-4.325-1.165 0-2.446 1.578-2.621 4.033H0C.174 2.279 1.864 0 3.9 0c2.157 0 3.847 2.513 3.963 5.728V5.9c.059 3.217-1.689 5.79-3.903 5.79z" transform="translate(57.326 7.195)" style="fill:#1c3754"/>
            <path data-name="Path" d="M0 .5h84.752" transform="translate(1 56.608)" style="fill:none;stroke:#eaeef9;stroke-linecap:round;stroke-linejoin:round;stroke-miterlimit:10;stroke-width:2px"/>
            <path data-name="Path" d="M.583 1.169A.585.585 0 0 1 0 .585.551.551 0 0 1 .583 0h1.805a.585.585 0 0 1 0 1.169z" transform="translate(61.637 34.84)" style="fill:#d5dae8"/>
            <path d="M11.475 26.827a.7.7 0 0 1-.583-.409L9.96 22.97h-4.6a.584.584 0 0 1 0-1.169h4.251l-1.456-5.144H3.728a.585.585 0 0 1-.583-.584.552.552 0 0 1 .583-.585h4.078l-1.457-5.143H2.155a.585.585 0 0 1-.582-.585.551.551 0 0 1 .582-.585h3.9L4.6 4.033H.583A.586.586 0 0 1 0 3.448a.551.551 0 0 1 .583-.584h3.669L3.669.76a.6.6 0 0 1 .408-.7h.175a.7.7 0 0 1 .583.409l.7 2.4h4.66a.551.551 0 0 1 .583.584.551.551 0 0 1-.583.585H5.883L7.34 9.175h7.339L12.349.76a.6.6 0 0 1 .408-.7h.175a.7.7 0 0 1 .582.409l.7 2.4h2.5a.551.551 0 0 1 .582.584.585.585 0 0 1-.582.585h-2.152l1.456 5.143h4.952a.584.584 0 0 1 .582.585.551.551 0 0 1-.582.585h-4.6l1.456 5.143h7.4l-3.2-11.455h-1.58a.585.585 0 0 1 0-1.169h1.223L21.086.76a.666.666 0 0 1 .058-.469.6.6 0 0 1 .35-.291h.175a.7.7 0 0 1 .583.409l.7 2.4h1.224a.552.552 0 0 1 .583.585.552.552 0 0 1-.583.585H23.3l1.456 5.143h7.4L30.7 3.975h-3.789a.585.585 0 0 1 0-1.17h3.262L29.59.7A.6.6 0 0 1 30 0h.175a.7.7 0 0 1 .583.409l.7 2.4h7.4L38.27.7a.6.6 0 0 1 .407-.7h.175a.7.7 0 0 1 .583.409l.7 2.4h4.544a.552.552 0 0 1 .582.585.551.551 0 0 1-.582.585h-4.371l1.456 5.143h4.368a.585.585 0 0 1 .583.585.551.551 0 0 1-.583.584h-4.018l1.456 5.139h4.194a.585.585 0 0 1 .583.584.552.552 0 0 1-.583.585h-3.845l1.457 5.143h3.961a.585.585 0 0 1 0 1.17h-3.67l.874 3.1a.6.6 0 0 1-.408.7h-.175a.7.7 0 0 1-.582-.409l-.932-3.389h-7.4l.873 3.039a.662.662 0 0 1-.058.467.594.594 0 0 1-.35.292h-.175a.7.7 0 0 1-.583-.409l-.932-3.331h-7.4l.874 3.039a.6.6 0 0 1-.408.7h-.175a.7.7 0 0 1-.582-.409l-.928-3.333h-7.4l.874 3.039a.6.6 0 0 1-.408.7H20.1a.7.7 0 0 1-.583-.409l-.932-3.331h-7.4l.875 3.1a.666.666 0 0 1-.058.469.6.6 0 0 1-.35.292z" transform="translate(25.93 25.664)" style="opacity:.41;fill:#d5dae8"/>
            <path data-name="Path" d="M2.043.818a6.35 6.35 0 0 0-.99 3.974 7.054 7.054 0 0 0 1.4 3.8 6.428 6.428 0 0 0 3.262 2.279 7.027 7.027 0 0 0 3.961 0 5.081 5.081 0 0 0 2.912-2.337 3.74 3.74 0 0 0 .058-3.507A5.089 5.089 0 0 0 9.79 2.63a11.466 11.466 0 0 0-4.019-.818A.906.906 0 0 1 5.829 0a13.8 13.8 0 0 1 4.6.994A7.01 7.01 0 0 1 14.1 4.325a5.5 5.5 0 0 1 .524 2.575 5.727 5.727 0 0 1-.7 2.455 6.425 6.425 0 0 1-3.845 3.039 7.829 7.829 0 0 1-4.779-.12A8.022 8.022 0 0 1 1.519 9.41 8.144 8.144 0 0 1 0 4.968 7.71 7.71 0 0 1 1.344.467a.514.514 0 0 1 .641-.116c.115 0 .175.292.058.467z" transform="translate(39.731 31.801)" style="fill:url(#txjbrwmedd)"/>
            <path data-name="Path" d="M.721 1.519A1.078 1.078 0 0 1 .081.117C.081.058.139 0 .255 0h1.864c.058 0 .175.058.175.117A1.194 1.194 0 0 1 2 1.344a1.447 1.447 0 0 1-1.279.175z" transform="translate(76.153 53.167)" style="fill:url(#vf2c8krake)"/>
        </g>
    </g>
</svg>
