<svg xmlns="http://www.w3.org/2000/svg" version="1.1" xmlns:xlink="http://www.w3.org/1999/xlink"  width="512" height="512" x="0" y="0" viewBox="0 0 512.014 512.014" style="enable-background:new 0 0 512 512" xml:space="preserve" class=""><g>
<g xmlns="http://www.w3.org/2000/svg">
	<path style="" d="M458.68,160.003v213.333c0,0-10.667,53.333-53.333,53.333v74.667h-224v-85.333   c0-32-21.333-32-21.333-32h-64c-17.304,0.369-31.631-13.359-32-30.663c-0.01-0.446-0.01-0.891,0-1.337v-39.787   c-8.74-8.141-20.071-12.938-32-13.547c-11.538,0.244-21.089-8.911-21.333-20.449c-0.006-0.295-0.006-0.589,0-0.884l53.333-96.64   v-20.693c0-82.475,66.859-149.333,149.333-149.333h85.333C381.134,10.669,458.68,77.549,458.68,160.003L458.68,160.003z" fill="#ffffff" data-original="#ffffff" class=""></path>
	<path style="" d="M501.347,170.669v53.333l-10.667,10.667h-21.333v-64H501.347z" fill="#ffffff" data-original="#ffffff" class=""></path>
</g>
<g xmlns="http://www.w3.org/2000/svg">
	<path style="" d="M437.347,122.989L298.68,181.336l-138.667-58.347l-64-26.987L298.68,10.669l202.667,85.333   L437.347,122.989z" fill="#bdd3dd" data-original="#87d2f3" class=""></path>
	<path style="" d="M437.347,122.989v165.013l-138.667,64l-138.667-64V122.989l138.667,58.347L437.347,122.989z" fill="#bdd3dd" data-original="#87d2f3" class=""></path>
</g>
<g xmlns="http://www.w3.org/2000/svg">
	<path style="" d="M448.014,372.163c-1.536,6.4-11.819,43.84-42.667,43.84c-5.891,0-10.667,4.776-10.667,10.667v64   H192.014v-74.667c0-33.749-20.928-42.667-32-42.667h-64c-11.07,0.712-20.621-7.685-21.333-18.754c-0.055-0.859-0.055-1.72,0-2.579   v-39.765c-0.002-3.051-1.31-5.956-3.595-7.979c-10.694-9.866-24.536-15.625-39.072-16.256c-5.135,0.624-9.803-3.033-10.427-8.167   c-0.006-0.047-0.011-0.095-0.016-0.142l51.787-93.867c0.863-1.58,1.318-3.351,1.323-5.152v-31.339H53.347v28.597L1.336,272.184   c-0.866,1.579-1.321,3.351-1.323,5.152c-0.502,17.171,13.01,31.498,30.181,32c0.606,0.018,1.213,0.018,1.819,0   c7.758,0.431,15.2,3.218,21.333,7.989v34.677c-0.67,22.895,17.347,41.997,40.242,42.667c0.808,0.024,1.617,0.024,2.425,0h63.701   c1.824,0.128,10.965,1.707,10.965,21.333v85.333c0,5.891,4.776,10.667,10.667,10.667h224c5.891,0,10.667-4.776,10.667-10.667   v-64.981c33.344-6.304,49.237-41.483,53.12-60.928c0.14-0.688,0.211-1.388,0.213-2.091V330.67h-21.333V372.163z" fill="#1f3b64" data-original="#2170a6" class=""></path>
	<path style="" d="M505.486,86.168L302.819,0.835c-2.65-1.099-5.628-1.099-8.277,0L91.875,86.168   c-5.432,2.281-7.986,8.533-5.705,13.965c1.081,2.575,3.13,4.623,5.705,5.705l57.472,24.203v157.963   c0,4.161,2.419,7.942,6.197,9.685l138.667,64c2.836,1.309,6.103,1.309,8.939,0l138.667-64c3.778-1.743,6.197-5.524,6.197-9.685   V130.04l42.667-17.963v47.925h-21.333c-5.891,0-10.667,4.776-10.667,10.667v64c0,5.891,4.776,10.667,10.667,10.667h21.333   c2.829-0.001,5.541-1.125,7.541-3.125l10.667-10.667c2.001-2,3.125-4.713,3.125-7.541v-128   C512.015,91.71,509.442,87.834,505.486,86.168z M426.68,281.176l-128,59.093l-128-59.093V139.021l117.333,49.397v67.584h21.333   v-67.584l117.333-49.397V281.176z M298.68,169.763l-175.2-73.76l175.2-73.76l175.2,73.76L298.68,169.763z M490.68,219.587   l-4.416,4.416h-6.251v-42.667h10.667V219.587z" fill="#1f3b64" data-original="#2170a6" class=""></path>
	<path style="" d="M277.347,85.336h42.667v21.333h-42.667V85.336z" fill="#1f3b64" data-original="#2170a6" class=""></path>
</g>
<g xmlns="http://www.w3.org/2000/svg">
</g>
<g xmlns="http://www.w3.org/2000/svg">
</g>
<g xmlns="http://www.w3.org/2000/svg">
</g>
<g xmlns="http://www.w3.org/2000/svg">
</g>
<g xmlns="http://www.w3.org/2000/svg">
</g>
<g xmlns="http://www.w3.org/2000/svg">
</g>
<g xmlns="http://www.w3.org/2000/svg">
</g>
<g xmlns="http://www.w3.org/2000/svg">
</g>
<g xmlns="http://www.w3.org/2000/svg">
</g>
<g xmlns="http://www.w3.org/2000/svg">
</g>
<g xmlns="http://www.w3.org/2000/svg">
</g>
<g xmlns="http://www.w3.org/2000/svg">
</g>
<g xmlns="http://www.w3.org/2000/svg">
</g>
<g xmlns="http://www.w3.org/2000/svg">
</g>
<g xmlns="http://www.w3.org/2000/svg">
</g>
</g></svg>