<svg xmlns="http://www.w3.org/2000/svg" version="1.1" xmlns:xlink="http://www.w3.org/1999/xlink" width="512" height="512" x="0" y="0" viewBox="0 0 512 512" style="enable-background:new 0 0 512 512" xml:space="preserve" class=""><g>
<g xmlns="http://www.w3.org/2000/svg">
	<path style="" d="M384,380.267v14.4c17.304,8.243,35.118,15.369,53.333,21.333c32,10.667,32,32,32,32v64H256v-64   c0,0,0-21.333,32-32c18.215-5.964,36.03-13.09,53.333-21.333v-14.4c-25.564-9.008-42.664-33.162-42.667-60.267v-32   c0-35.346,28.654-64,64-64s64,28.654,64,64v32C426.664,347.104,409.564,371.259,384,380.267z" fill="#ffffff" data-original="#ffffff" class=""></path>
	<path style="" d="M170.667,380.267v14.4C187.97,402.91,205.785,410.036,224,416c32,10.667,32,32,32,32v64H42.667v-64   c0,0,0-21.333,32-32c18.215-5.964,36.03-13.09,53.333-21.333v-14.4c-25.564-9.008-42.664-33.162-42.667-60.267v-32   c0-35.346,28.654-64,64-64s64,28.654,64,64v32C213.331,347.104,196.231,371.259,170.667,380.267z" fill="#ffffff" data-original="#ffffff" class=""></path>
</g>
<g xmlns="http://www.w3.org/2000/svg">
	<path style="" d="M277.333,380.267v14.4c17.304,8.243,35.118,15.369,53.333,21.333c32,10.667,32,32,32,32v64H149.333   v-64c0,0,0-21.333,32-32c18.215-5.964,36.03-13.09,53.333-21.333v-14.4C209.103,371.259,192.002,347.104,192,320v-32   c0-35.346,28.654-64,64-64s64,28.654,64,64v32C319.998,347.104,302.897,371.259,277.333,380.267z" fill="#bdd3dd" data-original="#87d2f3" class=""></path>
	<path style="" d="M501.333,53.333V224H10.667V53.333c0-23.564,19.103-42.667,42.667-42.667h405.333   C482.231,10.667,501.333,29.769,501.333,53.333z" fill="#bdd3dd" data-original="#87d2f3" class=""></path>
</g>
<path xmlns="http://www.w3.org/2000/svg" style="" d="M74.667,64h192v42.667h-192V64z" fill="#ffffff" data-original="#ffffff" class=""></path>
<g xmlns="http://www.w3.org/2000/svg">
	<path style="" d="M458.667,0H53.333C23.893,0.035,0.035,23.893,0,53.333V224h21.333V53.333c0-17.673,14.327-32,32-32   h405.333c17.673,0,32,14.327,32,32V224H512V53.333C511.965,23.893,488.107,0.035,458.667,0z" fill="#1f3b64" data-original="#2170a6" class=""></path>
	<path style="" d="M334.037,405.877c-15.646-5.192-31.012-11.191-46.037-17.973v-0.501   c26.018-12.373,42.615-38.592,42.667-67.403v-32c0-41.237-33.429-74.667-74.667-74.667S181.333,246.763,181.333,288v32   c0.051,28.811,16.648,55.03,42.667,67.403v0.501c-15.025,6.783-30.391,12.782-46.037,17.973   c-38.848,12.949-39.296,40.939-39.296,42.123v64H160v-63.712c0-0.576,1.067-14.293,24.704-22.165   c18.696-6.097,36.978-13.398,54.731-21.856c3.634-1.816,5.921-5.538,5.899-9.6v-14.389c0.002-4.519-2.844-8.549-7.104-10.059   c-21.278-7.54-35.515-27.645-35.563-50.219v-32c0-29.455,23.878-53.333,53.333-53.333s53.333,23.878,53.333,53.333v32   c-0.047,22.574-14.285,42.679-35.563,50.219c-4.26,1.509-7.106,5.539-7.104,10.059v14.389c-0.022,4.062,2.265,7.784,5.899,9.6   c17.752,8.476,36.034,15.795,54.731,21.909C350.933,433.995,352,447.712,352,448v64h21.333v-64   C373.333,446.816,372.885,418.827,334.037,405.877L334.037,405.877z" fill="#1f3b64" data-original="#2170a6" class=""></path>
	<path style="" d="M138.667,380.277c0.002-4.519-2.844-8.549-7.104-10.059C110.285,362.679,96.047,342.574,96,320v-32   c-0.032-29.455,23.82-53.359,53.275-53.392c8.905-0.01,17.672,2.211,25.499,6.458l10.187-18.752   c-36.24-19.676-81.57-6.248-101.246,29.992c-5.948,10.956-9.059,23.227-9.048,35.693v32c0.051,28.811,16.648,55.03,42.667,67.403   v0.501c-15.025,6.783-30.391,12.782-46.037,17.973C32.448,418.827,32,446.816,32,448v64h21.333v-63.712   c0-0.576,1.067-14.293,24.704-22.165c18.696-6.097,36.978-13.398,54.731-21.856c3.634-1.816,5.921-5.538,5.899-9.6V380.277z" fill="#1f3b64" data-original="#2170a6" class=""></path>
	<path style="" d="M245.333,458.667h21.333V480h-21.333V458.667z" fill="#1f3b64" data-original="#2170a6" class=""></path>
	<path style="" d="M288,458.667h21.333V480H288V458.667z" fill="#1f3b64" data-original="#2170a6" class=""></path>
	<path style="" d="M202.667,458.667H224V480h-21.333V458.667z" fill="#1f3b64" data-original="#2170a6" class=""></path>
	<path style="" d="M440.704,405.877c-15.646-5.192-31.012-11.191-46.037-17.973v-0.501   c26.018-12.373,42.615-38.592,42.667-67.403v-30.251c0.98-41.226-31.646-75.44-72.872-76.419   c-13.049-0.31-25.952,2.806-37.422,9.038l10.187,18.741c11.582-6.265,25.06-8.06,37.877-5.045   c24.426,6.255,41.353,28.475,40.896,53.685V320c-0.047,22.574-14.285,42.679-35.563,50.219c-4.26,1.509-7.106,5.539-7.104,10.059   v14.389c-0.022,4.062,2.265,7.784,5.899,9.6c17.752,8.476,36.034,15.795,54.731,21.909c23.637,7.819,24.704,21.536,24.704,21.824   v64H480v-64C480,446.816,479.552,418.827,440.704,405.877L440.704,405.877z" fill="#1f3b64" data-original="#2170a6" class=""></path>
	<path style="" d="M266.667,53.333h-192C68.776,53.333,64,58.109,64,64v42.667c0,5.891,4.776,10.667,10.667,10.667h192   c5.891,0,10.667-4.776,10.667-10.667V64C277.333,58.109,272.558,53.333,266.667,53.333z M256,96H85.333V74.667H256V96z" fill="#1f3b64" data-original="#2170a6" class=""></path>
	<path style="" d="M298.667,53.333H320v21.333h-21.333V53.333z" fill="#1f3b64" data-original="#2170a6" class=""></path>
	<path style="" d="M341.333,53.333h21.333v21.333h-21.333V53.333z" fill="#1f3b64" data-original="#2170a6" class=""></path>
	<path style="" d="M298.667,96H448v21.333H298.667V96z" fill="#1f3b64" data-original="#2170a6" class=""></path>
	<path style="" d="M170.795,149.333c-5.384,0.572-10.211-3.329-10.783-8.713c-0.069-0.649-0.073-1.304-0.012-1.954   h-21.333c-0.502,17.171,13.01,31.498,30.181,32c0.606,0.018,1.213,0.018,1.819,0h74.667V192h21.333v-21.333h74.667   c17.171,0.502,31.498-13.01,32-30.181c0.018-0.606,0.018-1.213,0-1.819H352c0.527,5.365-3.395,10.14-8.76,10.667   c-0.634,0.062-1.273,0.062-1.907,0H170.795z" fill="#1f3b64" data-original="#2170a6" class=""></path>
</g>
<g xmlns="http://www.w3.org/2000/svg">
</g>
<g xmlns="http://www.w3.org/2000/svg">
</g>
<g xmlns="http://www.w3.org/2000/svg">
</g>
<g xmlns="http://www.w3.org/2000/svg">
</g>
<g xmlns="http://www.w3.org/2000/svg">
</g>
<g xmlns="http://www.w3.org/2000/svg">
</g>
<g xmlns="http://www.w3.org/2000/svg">
</g>
<g xmlns="http://www.w3.org/2000/svg">
</g>
<g xmlns="http://www.w3.org/2000/svg">
</g>
<g xmlns="http://www.w3.org/2000/svg">
</g>
<g xmlns="http://www.w3.org/2000/svg">
</g>
<g xmlns="http://www.w3.org/2000/svg">
</g>
<g xmlns="http://www.w3.org/2000/svg">
</g>
<g xmlns="http://www.w3.org/2000/svg">
</g>
<g xmlns="http://www.w3.org/2000/svg">
</g>
</g></svg>