<svg xmlns="http://www.w3.org/2000/svg" version="1.1" xmlns:xlink="http://www.w3.org/1999/xlink"  width="512" height="512" x="0" y="0" viewBox="0 0 512.016 512.016" style="enable-background:new 0 0 512 512" xml:space="preserve" class=""><g>
<circle xmlns="http://www.w3.org/2000/svg" style="" cx="202.675" cy="384.016" r="21.333" fill="#ffffff" data-original="#ffffff" class=""></circle>
<path xmlns="http://www.w3.org/2000/svg" style="" d="M501.341,192.016v277.333l-85.333-74.667v85.333c-0.035,11.768-9.566,21.298-21.333,21.333H32.008  c-11.767-0.035-21.298-9.566-21.333-21.333V181.349c0.035-11.767,9.566-21.298,21.333-21.333h362.667  c11.767,0.035,21.298,9.566,21.333,21.333v85.333L501.341,192.016z M224.008,384.016c0-11.782-9.551-21.333-21.333-21.333  c-11.782,0-21.333,9.551-21.333,21.333c0,11.782,9.551,21.333,21.333,21.333C214.442,405.314,223.973,395.783,224.008,384.016z" fill="#bdd3dd" data-original="#87d2f3" class=""></path>
<path xmlns="http://www.w3.org/2000/svg" style="" d="M277.341,10.682c41.237,0,74.667,33.429,74.667,74.667s-33.429,74.667-74.667,74.667  s-74.667-33.429-74.667-74.667c-0.029-41.208,33.352-74.637,74.56-74.667C277.27,10.682,277.306,10.682,277.341,10.682z   M309.341,85.349c0-17.673-14.327-32-32-32s-32,14.327-32,32s14.327,32,32,32S309.341,103.022,309.341,85.349z" fill="#ffffff" data-original="#ffffff" class=""></path>
<circle xmlns="http://www.w3.org/2000/svg" style="" cx="277.341" cy="85.349" r="32" fill="#bdd3dd" data-original="#87d2f3" class=""></circle>
<path xmlns="http://www.w3.org/2000/svg" style="" d="M128.008,10.682c41.237,0,74.667,33.429,74.667,74.667s-33.429,74.667-74.667,74.667  s-74.667-33.429-74.667-74.667c-0.029-41.208,33.352-74.637,74.56-74.667C127.937,10.682,127.972,10.682,128.008,10.682z   M160.008,85.349c0-17.673-14.327-32-32-32s-32,14.327-32,32s14.327,32,32,32S160.008,103.022,160.008,85.349z" fill="#ffffff" data-original="#ffffff" class=""></path>
<circle xmlns="http://www.w3.org/2000/svg" style="" cx="128.008" cy="85.349" r="32" fill="#bdd3dd" data-original="#87d2f3" class=""></circle>
<g xmlns="http://www.w3.org/2000/svg">
	<path style="" d="M505.747,182.309c-3.81-1.734-8.282-1.079-11.435,1.675l-67.637,59.232v-61.867   c0-17.673-14.327-32-32-32h-42.667v21.333h42.667c5.891,0,10.667,4.776,10.667,10.667v170.667h21.333v-80.491l64-56v230.357   l-67.637-59.189c-4.431-3.882-11.17-3.437-15.052,0.993c-1.697,1.936-2.636,4.421-2.644,6.996v85.333   c0,5.891-4.776,10.667-10.667,10.667H32.008c-5.891,0-10.667-4.776-10.667-10.667V181.349c0-5.891,4.776-10.667,10.667-10.667   h21.333v-21.333H32.008c-17.673,0-32,14.327-32,32v298.667c0,17.673,14.327,32,32,32h362.667c17.673,0,32-14.327,32-32v-61.867   l67.637,59.189c4.431,3.882,11.17,3.437,15.052-0.993c1.697-1.936,2.636-4.421,2.644-6.996V192.016   C512.005,187.832,509.557,184.037,505.747,182.309L505.747,182.309z" fill="#1f3b64" data-original="#2170a6" class=""></path>
	<path style="" d="M170.675,384.016c0,17.673,14.327,32,32,32s32-14.327,32-32s-14.327-32-32-32   S170.675,366.343,170.675,384.016z M213.341,384.016c0,5.891-4.776,10.667-10.667,10.667c-5.891,0-10.667-4.776-10.667-10.667   c0-5.891,4.776-10.667,10.667-10.667C208.566,373.349,213.341,378.125,213.341,384.016z" fill="#1f3b64" data-original="#2170a6" class=""></path>
	<path style="" d="M128.008,170.682c31.064-0.019,59.663-16.917,74.667-44.117   c22.763,41.267,74.669,56.267,115.936,33.504S374.877,85.4,352.114,44.133C329.351,2.867,277.445-12.133,236.178,10.63   c-14.107,7.781-25.722,19.397-33.504,33.504C179.912,2.867,128.005-12.133,86.739,10.63S30.472,85.299,53.235,126.565   C68.257,153.798,96.906,170.702,128.008,170.682z M277.341,21.349c35.346,0,64,28.654,64,64s-28.654,64-64,64s-64-28.654-64-64   C213.377,50.018,242.01,21.384,277.341,21.349z M128.008,21.349c35.346,0,64,28.654,64,64s-28.654,64-64,64s-64-28.654-64-64   C64.043,50.018,92.676,21.384,128.008,21.349z" fill="#1f3b64" data-original="#2170a6" class=""></path>
	<path style="" d="M128.008,128.016c23.564,0,42.667-19.103,42.667-42.667s-19.103-42.667-42.667-42.667   S85.341,61.785,85.341,85.349S104.444,128.016,128.008,128.016z M128.008,64.016c11.782,0,21.333,9.551,21.333,21.333   s-9.551,21.333-21.333,21.333s-21.333-9.551-21.333-21.333S116.226,64.016,128.008,64.016z" fill="#1f3b64" data-original="#2170a6" class=""></path>
	<path style="" d="M277.341,128.016c23.564,0,42.667-19.103,42.667-42.667s-19.103-42.667-42.667-42.667   s-42.667,19.103-42.667,42.667S253.777,128.016,277.341,128.016z M277.341,64.016c11.782,0,21.333,9.551,21.333,21.333   s-9.551,21.333-21.333,21.333s-21.333-9.551-21.333-21.333S265.559,64.016,277.341,64.016z" fill="#1f3b64" data-original="#2170a6" class=""></path>
	<path style="" d="M309.341,362.682h21.333c0-70.692-57.308-128-128-128s-128,57.308-128,128h21.333   c0-58.91,47.756-106.667,106.667-106.667S309.341,303.772,309.341,362.682z" fill="#1f3b64" data-original="#2170a6" class=""></path>
	<path style="" d="M256.008,362.682h21.333c0-41.237-33.429-74.667-74.667-74.667s-74.667,33.429-74.667,74.667h21.333   c0-29.455,23.878-53.333,53.333-53.333S256.008,333.227,256.008,362.682z" fill="#1f3b64" data-original="#2170a6" class=""></path>
</g>
<g xmlns="http://www.w3.org/2000/svg">
</g>
<g xmlns="http://www.w3.org/2000/svg">
</g>
<g xmlns="http://www.w3.org/2000/svg">
</g>
<g xmlns="http://www.w3.org/2000/svg">
</g>
<g xmlns="http://www.w3.org/2000/svg">
</g>
<g xmlns="http://www.w3.org/2000/svg">
</g>
<g xmlns="http://www.w3.org/2000/svg">
</g>
<g xmlns="http://www.w3.org/2000/svg">
</g>
<g xmlns="http://www.w3.org/2000/svg">
</g>
<g xmlns="http://www.w3.org/2000/svg">
</g>
<g xmlns="http://www.w3.org/2000/svg">
</g>
<g xmlns="http://www.w3.org/2000/svg">
</g>
<g xmlns="http://www.w3.org/2000/svg">
</g>
<g xmlns="http://www.w3.org/2000/svg">
</g>
<g xmlns="http://www.w3.org/2000/svg">
</g>
</g></svg>
