<svg xmlns="http://www.w3.org/2000/svg" xmlns:xlink="http://www.w3.org/1999/xlink" width="246.527" height="263.308" viewBox="0 0 246.527 263.308">
    <defs>
        <linearGradient id="linear-gradient" x1=".5" x2=".5" y2="1" gradientUnits="objectBoundingBox">
            <stop offset="0" stop-color="#eaeef9" stop-opacity="0"/>
            <stop offset="1" stop-color="#f6f6f6"/>
        </linearGradient>
        <linearGradient id="linear-gradient-2" x1="-.004" y1=".499" x2=".994" y2=".499" gradientUnits="objectBoundingBox">
            <stop offset="0" stop-color="#ff66a9"/>
            <stop offset="1" stop-color="#f53689"/>
        </linearGradient>
        <linearGradient id="linear-gradient-3" x1="-.005" y1=".504" x2=".998" y2=".504" xlink:href="#linear-gradient-2"/>
        <linearGradient id="linear-gradient-4" x1=".002" y1=".499" x2=".999" y2=".499" xlink:href="#linear-gradient-2"/>
        <linearGradient id="linear-gradient-5" x1=".5" y1=".47" x2=".5" y2=".951" xlink:href="#linear-gradient-2"/>
        <linearGradient id="linear-gradient-6" x1=".005" y1=".497" x2="1.004" y2=".497" xlink:href="#linear-gradient-2"/>
        <linearGradient id="linear-gradient-7" x1="0" y1=".49" x2=".999" y2=".49" xlink:href="#linear-gradient-2"/>
        <linearGradient id="linear-gradient-8" x1="-.024" y1=".503" x2=".994" y2=".503" xlink:href="#linear-gradient-2"/>
        <filter id="Path" x="17.748" y="56.171" width="217.483" height="207.137" filterUnits="userSpaceOnUse">
            <feOffset dy="11"/>
            <feGaussianBlur stdDeviation="11" result="blur"/>
            <feFlood flood-color="#657a93" flood-opacity=".18"/>
            <feComposite operator="in" in2="blur"/>
            <feComposite in="SourceGraphic"/>
        </filter>
        <style>
            .cls-2{fill:#db1a74}.cls-4{fill:#e9368b}.cls-6{fill:#fff}.cls-11{fill:#43d477}
        </style>
    </defs>
    <g id="Group_1331" data-name="Group 1331" transform="translate(-320.473 -413.262)">
        <g id="_41" data-name="41" transform="translate(320.473 413.262)">
            <path id="Path-2" data-name="Path" d="M232.482 117.059a117.739 117.739 0 0 1-23.654 70.794 116.566 116.566 0 0 1-29.15 27.221A114.126 114.126 0 0 1 116.36 234.1C52.087 234.1 0 181.588 0 117.059 0 52.264 52.087 0 116.121 0a115.64 115.64 0 0 1 92.468 46 117.14 117.14 0 0 1 23.893 71.059z" transform="translate(9.651 10.376)" style="fill:url(#linear-gradient)"/>
            <path id="Path-3" data-name="Path" class="cls-2" d="M0 27.976C17.919 20.991 43.486 6.548 54 .283a1.879 1.879 0 0 1 2.628 2.4 63.268 63.268 0 0 1-5.972 11.566s5.5 1.212 9.078 4.335a2.386 2.386 0 0 1-.477 4.088c-9.319 4.581-21.265 6.759-21.265 6.759L5.973 32.064z" transform="translate(158.268 37.438)"/>
            <path id="Path-4" data-name="Path" class="cls-2" d="M60.675 27.976C42.755 20.991 17.189 6.548 6.676.283a1.879 1.879 0 0 0-2.628 2.4 63.241 63.241 0 0 0 5.973 11.566s-5.5 1.212-9.08 4.335a2.386 2.386 0 0 0 .478 4.088c9.319 4.581 21.265 6.759 21.265 6.759L54.7 32.064z" transform="translate(32.842 37.438)"/>
            <path id="Path-5" data-name="Path" d="M65.229 32.654a25.535 25.535 0 0 1-5.257 11.566c-5.5 6.985-13.619 11.566-21.265 15.408a95.762 95.762 0 0 1-17.92 7.232c-4.062.966-11.23-1.212-16.008-3.123C1.911 62.525 0 61.806 0 61.806v-5.794c1.195-9.389 1.911-19.25 5.734-27.94A47.239 47.239 0 0 1 21.743 7.857C28.672 2.8 37.035-2.024 46.115.872c10.991 3.616 19.114 14.443 19.831 26.009-.238 1.931-.479 3.842-.717 5.773z" transform="translate(131.985 .485)" style="fill:url(#linear-gradient-2)"/>
            <path id="Path-6" data-name="Path" class="cls-4" d="M60.45 6.019a25.535 25.535 0 0 1-5.257 11.566c-5.5 6.985-13.619 11.566-21.265 15.408a95.763 95.763 0 0 1-17.919 7.231C11.947 41.191 4.779 39.013 0 37.1l23.654-7.951c7.407-2.424 14.814-5.054 21.5-9.163C51.848 15.9 57.582 10.128 60.212 2.65c.238-.719.477-1.685.717-2.65a47.284 47.284 0 0 1-.479 6.019z" transform="translate(136.764 27.12)"/>
            <path id="Path-7" data-name="Path" class="cls-2" d="M4.74 39.556A3.751 3.751 0 0 1 .2 34.748C4.262 20.059 9.518 13.793 14.536 9.212 19.076 5.124 26.722 1.508 33.65.07a3.885 3.885 0 0 1 4.54 4.33c-.955 9.389-4.779 18.551-11.708 23.831-8.84 6.99-16.725 10.133-21.742 11.325z" transform="translate(139.431 9.957)"/>
            <path id="Path-8" data-name="Path" d="M65.494 56.271v5.773a8.329 8.329 0 0 1-1.195.473c-3.584 1.705-14.336 6.04-19.592 4.581-6.212-1.438-12.186-4.335-17.92-7.211-7.646-3.862-16.008-8.444-21.265-15.429A25.472 25.472 0 0 1 .265 32.913a27.993 27.993 0 0 1 2.389-15.9 41.014 41.014 0 0 1 3.106-5.547 29.55 29.55 0 0 1 14.1-10.6C28.7-2.012 37.061 2.8 44.229 7.849a45.889 45.889 0 0 1 16.008 20.236C63.344 37 64.3 46.862 65.494 56.271z" transform="translate(55.5)" style="fill:url(#linear-gradient-3)"/>
            <path id="Path-9" data-name="Path" class="cls-4" d="M64.3 45.5c-3.584 1.685-14.336 6.019-19.593 4.581-6.212-1.438-12.186-4.335-17.92-7.231-7.646-3.842-16.008-8.423-21.265-15.408A25.546 25.546 0 0 1 .265 15.88 27.951 27.951 0 0 1 2.654 0a34.626 34.626 0 0 0-.478 6.245 32.274 32.274 0 0 0 9.557 21.2c5.734 5.547 13.141 8.67 20.787 10.354s15.531 2.178 23.415 3.123c3.347.248 7.408 1.46 8.365 4.578z" transform="translate(55.261 17.258)"/>
            <path id="Path-10" data-name="Path" class="cls-2" d="M16.964 34.206A17.1 17.1 0 1 0 0 17.093a17.04 17.04 0 0 0 16.964 17.113z" transform="translate(109.764 51.69)"/>
            <path id="Path-11" data-name="Path" class="cls-2" d="M33.469 39.556a3.751 3.751 0 0 0 4.54-4.807c-4.062-14.69-9.319-20.956-14.336-25.537C19.133 5.124 11.487 1.508 4.558.07A3.885 3.885 0 0 0 .018 4.4C.974 13.793 4.8 22.956 11.726 28.236c9.079 6.985 16.725 10.128 21.743 11.32z" transform="translate(74.862 9.957)"/>
            <g style="filter:url(#Path)">
                <path id="Path-12" data-name="Path" class="cls-6" d="M151.483 11.32v118.5a11.259 11.259 0 0 1-11.229 11.32H11.23A11.26 11.26 0 0 1 0 129.817V11.32A11.273 11.273 0 0 1 11.23 0h129.024a11.272 11.272 0 0 1 11.229 11.32z" transform="translate(50.75 78.17)"/>
            </g>
            <path id="Path-13" data-name="Path" d="M151.483 11.32v26.255H0V11.32A11.273 11.273 0 0 1 11.23 0h129.024a11.272 11.272 0 0 1 11.229 11.32z" transform="translate(50.748 78.171)" style="fill:#dde1f0"/>
            <path id="Path-14" data-name="Path" class="cls-6" d="M167.252 6.738V37.1a6.711 6.711 0 0 1-6.689 6.738H6.69A6.708 6.708 0 0 1 0 37.1V6.738A6.712 6.712 0 0 1 6.69 0H160.8a6.666 6.666 0 0 1 6.452 6.738z" transform="translate(42.863 62.763)"/>
            <path id="Path-15" data-name="Path" d="M41.1 0H0v128.852h41.1z" transform="translate(104.03 90.703)" style="fill:url(#linear-gradient-4)"/>
            <path id="Path-16" data-name="Path" d="M41.1 0H0v25.043h41.1z" transform="translate(104.03 90.703)" style="opacity:.6;fill:#db1a74"/>
            <path id="Path-17" data-name="Path" d="M46.831 0H0v43.841h46.831z" transform="translate(101.163 62.763)" style="fill:url(#linear-gradient-5)"/>
            <g id="Group" transform="translate(143.164 58.921)">
                <path id="Shape" class="cls-11" d="M20.54 61.08.483 22.539a4.115 4.115 0 0 1-.314-3.08L3.617 7.666a4.064 4.064 0 0 1 1.924-2.383L14.272.5a3.829 3.829 0 0 1 3-.329l11.461 3.551a3.813 3.813 0 0 1 2.328 1.971l20.1 38.479a4.115 4.115 0 0 1-1.61 5.486L25.867 62.724a3.845 3.845 0 0 1-1.87.489 3.9 3.9 0 0 1-3.457-2.133z" transform="translate(11.244 19.7)"/>
                <path id="Path-18" data-name="Path" d="M26.993 26.133a4.2 4.2 0 0 0-2.865-.473 5.232 5.232 0 0 1 .358 2.445 5.606 5.606 0 0 1-2.776-.924 31.879 31.879 0 0 1-4.074-2.712 46.454 46.454 0 0 1-6.76-6.492c-7.119-8.32-8.91-14.4-8.059-15.141a.625.625 0 0 1 .448-.144c.806 0 2.552.7 4.835 2.363a48.767 48.767 0 0 1 8.372 7.909 44.377 44.377 0 0 1 6.044 8.9l2.373-1.294a52.569 52.569 0 0 0-6.4-9.389C12.4 4.028 4.294-2.218 1.026.761c-3.268 3 1.791 11.977 7.88 19.065a55.324 55.324 0 0 0 6.494 6.389 25.7 25.7 0 0 0 5.372 3.6 8.841 8.841 0 0 0 3.492 1.109h.136a2.688 2.688 0 0 0 2.015-.781 3.21 3.21 0 0 0 .761-2.342 7.492 7.492 0 0 0-.183-1.668z" style="fill:#1c3754"/>
                <text id="_" data-name="$" transform="rotate(-29 142.12 -50.189)" style="font-size:30px;font-family:Montserrat-Bold,Montserrat;font-weight:700;fill:#fff"><tspan x="-9.57" y="0">$</tspan></text>
            </g>
            <path id="Path-19" data-name="Path" class="cls-11" d="M10.607 7.319a4.12 4.12 0 0 1 0-2.4L12.279 1.3A.9.9 0 0 0 11.8.088h-.717L7.5 1.772a3.952 3.952 0 0 1-2.389 0L1.527.088A.878.878 0 0 0 .333.581V1.3l1.672 3.616a4.12 4.12 0 0 1 0 2.4L.094 11.182a.867.867 0 0 0 .478 1.192h.717l3.584-1.685a3.952 3.952 0 0 1 2.389 0l3.823 1.685a.869.869 0 0 0 1.195-.473v-.719z" transform="translate(0 74.714)"/>
            <path id="Path-20" data-name="Path" d="M10.607 7.329a4.189 4.189 0 0 1 0-2.424l1.672-3.6A.889.889 0 0 0 11.8.1h-.717L7.5 1.782a3.952 3.952 0 0 1-2.389 0L1.527.1A.869.869 0 0 0 .333.57v.74L2.005 4.9a4.189 4.189 0 0 1 0 2.424l-1.912 3.6a.889.889 0 0 0 .478 1.212h.717l3.584-1.685a3.952 3.952 0 0 1 2.389 0l3.584 1.685a.869.869 0 0 0 1.195-.473v-.74z" transform="translate(16.725 155.648)" style="fill:url(#linear-gradient-6)"/>
            <path id="Path-21" data-name="Path" d="M10.606 7.319a4.13 4.13 0 0 1 0-2.4L12.278 1.3A.888.888 0 0 0 11.8.088h-.717L7.5 1.772a3.952 3.952 0 0 1-2.389 0L1.527.088a.879.879 0 0 0-1.2.493V1.3L2 4.916a4.1 4.1 0 0 1 0 2.4L.093 11.161a.89.89 0 0 0 .477 1.212h.717l3.585-1.685a3.952 3.952 0 0 1 2.389 0l3.585 1.685a.868.868 0 0 0 1.194-.473v-.74z" transform="translate(234.155 109.639)" style="fill:url(#linear-gradient-7)"/>
            <path id="Path-22" data-name="Path" d="M10.367 7.319a4.13 4.13 0 0 1 0-2.4L12.04 1.3a.894.894 0 0 0-.477-1.212h-.717L7.261 1.793a4.3 4.3 0 0 1-2.389 0L1.289.088a.879.879 0 0 0-1.2.493V1.3l1.677 3.616a4.1 4.1 0 0 1 0 2.4L.093 10.935a.9.9 0 0 0 .479 1.212h.717l3.583-1.685a3.952 3.952 0 0 1 2.389 0l3.585 1.685a.877.877 0 0 0 1.194-.493v-.719z" transform="translate(213.128 11.131)" style="fill:url(#linear-gradient-8)"/>
            <path id="Path-23" data-name="Path" class="cls-11" d="M10.368 7.308a4.1 4.1 0 0 1 0-2.4l1.672-3.616A.868.868 0 0 0 11.562.1h-.717L7.262 1.782a4.3 4.3 0 0 1-2.389 0L1.288.1A.867.867 0 0 0 .094.57v.719L1.767 4.9a4.13 4.13 0 0 1 0 2.4L.094 10.924a.888.888 0 0 0 .477 1.212h.717l3.585-1.685a3.952 3.952 0 0 1 2.389 0l3.583 1.685a.864.864 0 0 0 1.2-.493v-.719z" transform="translate(220.535 182.376)"/>
        </g>
    </g>
</svg>
