<svg xmlns="http://www.w3.org/2000/svg" width="98.64" height="96.686" viewBox="0 0 98.64 96.686">
    <defs>
        <linearGradient id="oyqb6mh7da" x1=".893" y1=".897" x2=".125" y2=".096" gradientUnits="objectBoundingBox">
            <stop offset="0"/>
            <stop offset="1" stop-opacity="0"/>
        </linearGradient>
        <linearGradient id="1b8m1zzayb" x1=".893" y1=".897" x2=".125" y2=".096" gradientUnits="objectBoundingBox">
            <stop offset="0" stop-color="#9effc1"/>
            <stop offset="1" stop-color="#43d477"/>
        </linearGradient>
    </defs>
    <g transform="translate(-474 -955)">
        <rect data-name="Rectangle 831" width="74" height="74" rx="20" transform="rotate(22.5 -2149.396 1740.162)" style="fill:url(#oyqb6mh7da);opacity:.1"/>
        <rect data-name="Rectangle 833" width="8" height="8" rx="4" transform="rotate(51.98 -711.04 1066.947)" style="opacity:.05;fill:url(#oyqb6mh7da)"/>
        <rect data-name="Rectangle 834" width="5.358" height="5.358" rx="2.679" transform="rotate(51.98 -814.767 1010.654)" style="opacity:.31;fill:url(#1b8m1zzayb)"/>
        <rect data-name="Rectangle 832" width="8" height="8" rx="4" transform="rotate(51.98 -760.299 980.483)" style="opacity:.05;fill:url(#oyqb6mh7da)"/>
        <g data-name="Group 1928">
            <g data-name="members">
                <g data-name="Group 1728">
                    <g data-name="Group 1727">
                        <path data-name="Subtraction 1" d="M20483.65 8556.935c.008-.116.014-.212.014-.3 0-2.979-3.379-4.428-10.332-4.428a22.932 22.932 0 0 0-7.242.874c-2.039.71-3.078 1.887-3.09 3.5a17.659 17.659 0 0 1-5.041-6.038 17.5 17.5 0 1 1 33.115-7.907 17.493 17.493 0 0 1-7.422 14.307zm-10.318-21.749a6.837 6.837 0 1 0 6.84 6.835 6.845 6.845 0 0 0-6.84-6.835z" transform="translate(-19951.072 -7536.126)" style="fill:#072a30"/>
                    </g>
                    <path data-name="Path 2426" d="M75.09 30.926 63.061 10.05A13.317 13.317 0 0 0 51.5 3.38H27.394a13.363 13.363 0 0 0-11.561 6.67L3.779 30.926a13.387 13.387 0 0 0 0 13.34l12.03 20.876a13.434 13.434 0 0 0 11.561 6.67h24.106a13.363 13.363 0 0 0 11.561-6.67l12.029-20.876a13.27 13.27 0 0 0 .023-13.34zM39.446 60.3a22.7 22.7 0 1 1 22.7-22.7 22.7 22.7 0 0 1-22.7 22.7z" transform="translate(482.824 968.62)" style="fill:#43d685;fill-rule:evenodd"/>
                </g>
            </g>
        </g>
    </g>
</svg>
