<svg width="22" height="21" viewBox="0 0 22 21" fill="none" xmlns="http://www.w3.org/2000/svg">
<path d="M16.5608 20.375C16.3418 20.3756 16.1272 20.3138 15.9421 20.1969L11.2171 17.1969C11.1526 17.156 11.0778 17.1344 11.0014 17.1344C10.9251 17.1344 10.8503 17.156 10.7858 17.1969L6.39832 19.9813C6.17876 20.1232 5.92109 20.1948 5.65975 20.1865C5.39841 20.1781 5.14585 20.0901 4.93582 19.9344C4.71539 19.7751 4.54822 19.5529 4.45621 19.2969C4.3642 19.041 4.35165 18.7632 4.4202 18.5L5.68582 13.5219C5.70818 13.4398 5.70683 13.3532 5.68194 13.2719C5.65705 13.1906 5.60964 13.118 5.5452 13.0625L1.3077 9.53751C1.12371 9.38563 0.989584 9.18199 0.922718 8.95298C0.855853 8.72396 0.85933 8.48014 0.932699 8.25313C1.00332 8.02964 1.13933 7.83246 1.32316 7.68707C1.50699 7.54167 1.7302 7.45474 1.96395 7.43751L7.50457 7.08126C7.58213 7.07377 7.65621 7.0454 7.71894 6.99918C7.78166 6.95296 7.8307 6.89061 7.86082 6.81876L9.92332 1.61563C10.0063 1.39688 10.1539 1.20855 10.3465 1.07565C10.539 0.942756 10.7675 0.871582 11.0014 0.871582C11.2354 0.871582 11.4639 0.942756 11.6564 1.07565C11.849 1.20855 11.9966 1.39688 12.0796 1.61563L14.1421 6.81876C14.1722 6.89061 14.2212 6.95296 14.284 6.99918C14.3467 7.0454 14.4208 7.07377 14.4983 7.08126L20.0389 7.43751C20.2727 7.45474 20.4959 7.54167 20.6797 7.68707C20.8636 7.83246 20.9996 8.02964 21.0702 8.25313C21.1436 8.48014 21.147 8.72396 21.0802 8.95298C21.0133 9.18199 20.8792 9.38563 20.6952 9.53751L16.4577 13.0625C16.3933 13.118 16.3458 13.1906 16.321 13.2719C16.2961 13.3532 16.2947 13.4398 16.3171 13.5219L17.6858 18.8938C17.7466 19.125 17.7351 19.3693 17.653 19.5939C17.5709 19.8184 17.422 20.0125 17.2264 20.15C17.0352 20.296 16.8014 20.375 16.5608 20.375ZM11.0014 16.3813C11.2213 16.384 11.4358 16.449 11.6202 16.5688L16.3452 19.5594C16.4102 19.6045 16.4879 19.6279 16.567 19.6263C16.6462 19.6246 16.7228 19.5979 16.7858 19.55C16.859 19.4989 16.9145 19.4264 16.9447 19.3425C16.975 19.2585 16.9784 19.1672 16.9546 19.0813L15.5858 13.7C15.5327 13.4817 15.5413 13.253 15.6109 13.0394C15.6804 12.8258 15.8081 12.6358 15.9796 12.4906L20.2171 8.96563C20.2863 8.90761 20.336 8.82974 20.3594 8.74254C20.3829 8.65535 20.379 8.56305 20.3483 8.47813C20.3269 8.39848 20.2809 8.32757 20.217 8.27542C20.1531 8.22328 20.0744 8.19252 19.9921 8.18751L14.4515 7.83126C14.2315 7.81473 14.0207 7.73645 13.8432 7.60544C13.6658 7.47442 13.5289 7.29598 13.4483 7.09063L11.3858 1.88751C11.3557 1.81009 11.3028 1.74358 11.2343 1.69669C11.1657 1.6498 11.0845 1.62471 11.0014 1.62471C10.9184 1.62471 10.8372 1.6498 10.7686 1.69669C10.7001 1.74358 10.6472 1.81009 10.6171 1.88751L8.55457 7.09063C8.47402 7.29598 8.33715 7.47442 8.15969 7.60544C7.98224 7.73645 7.77141 7.81473 7.55145 7.83126L2.01082 8.18751C1.92803 8.19456 1.84917 8.2259 1.78412 8.2776C1.71908 8.32931 1.67075 8.39907 1.6452 8.47813C1.61938 8.56432 1.61892 8.65611 1.64385 8.74255C1.66879 8.829 1.71807 8.90644 1.78582 8.96563L6.02332 12.4906C6.1948 12.6358 6.32247 12.8258 6.39202 13.0394C6.46156 13.253 6.47024 13.4817 6.41707 13.7L5.15145 18.6875C5.11633 18.8039 5.1192 18.9284 5.15966 19.0431C5.20012 19.1577 5.27606 19.2565 5.37645 19.325C5.46429 19.3933 5.57156 19.4319 5.68277 19.4353C5.79398 19.4386 5.90338 19.4066 5.9952 19.3438L10.3827 16.5688C10.5671 16.449 10.7816 16.384 11.0014 16.3813Z" fill="#00C7C4"/>
</svg>
