<svg width="23" height="22" viewBox="0 0 23 22" fill="none" xmlns="http://www.w3.org/2000/svg">
<path d="M21.6666 10.1867C21.9143 10.0021 22.0981 9.7446 22.1922 9.45029C22.2862 9.15598 22.2858 8.83961 22.191 8.54556C22.0961 8.2515 21.9116 7.9945 21.6634 7.81058C21.4151 7.62667 21.1155 7.52506 20.8066 7.52002L14.8066 7.29335C14.7771 7.29131 14.7488 7.28079 14.7251 7.26305C14.7015 7.24531 14.6834 7.2211 14.6732 7.19335L12.5999 1.59335C12.4957 1.30844 12.3065 1.06243 12.0579 0.888614C11.8093 0.7148 11.5132 0.621582 11.2099 0.621582C10.9065 0.621582 10.6105 0.7148 10.3619 0.888614C10.1133 1.06243 9.92407 1.30844 9.81989 1.59335L7.75323 7.21335C7.74301 7.2411 7.72499 7.26531 7.70133 7.28305C7.67768 7.30079 7.64939 7.31131 7.61989 7.31335L1.61989 7.54002C1.31096 7.54506 1.01136 7.64667 0.76309 7.83058C0.51482 8.0145 0.330334 8.2715 0.235501 8.56556C0.140667 8.85962 0.140242 9.17598 0.234284 9.47029C0.328326 9.7646 0.51212 10.0221 0.759894 10.2067L5.46656 13.9067C5.49012 13.9252 5.50772 13.9503 5.5172 13.9787C5.52668 14.0071 5.52762 14.0377 5.51989 14.0667L3.89989 19.8067C3.81595 20.099 3.82408 20.41 3.92319 20.6975C4.02229 20.9851 4.20756 21.2351 4.45379 21.4135C4.70002 21.592 4.99526 21.6903 5.29933 21.695C5.6034 21.6998 5.90156 21.6107 6.15323 21.44L11.1266 18.1067C11.1511 18.0898 11.1801 18.0807 11.2099 18.0807C11.2397 18.0807 11.2687 18.0898 11.2932 18.1067L16.2666 21.44C16.5148 21.6166 16.8119 21.7114 17.1166 21.7114C17.4212 21.7114 17.7183 21.6166 17.9666 21.44C18.2129 21.2632 18.3983 21.0144 18.4974 20.7279C18.5965 20.4414 18.6043 20.1312 18.5199 19.84L16.8866 14.08C16.8779 14.0511 16.8784 14.0202 16.8879 13.9916C16.8975 13.9629 16.9156 13.938 16.9399 13.92L21.6666 10.1867Z" fill="#00C7C4"/>
</svg>
