<svg width="18" height="18" viewBox="0 0 18 18" fill="none" xmlns="http://www.w3.org/2000/svg">
<path d="M13.168 17.3334V15.6667H15.668V13.1667H17.3346V16.0834C17.3346 16.4167 17.168 16.6667 16.918 16.9167C16.668 17.1667 16.3346 17.3334 16.0846 17.3334H13.168ZM4.83464 17.3334H1.91797C1.58464 17.3334 1.33464 17.1667 1.08464 16.9167C0.834635 16.6667 0.667969 16.3334 0.667969 16.0834V13.1667H2.33464V15.6667H4.83464V17.3334ZM13.168 0.666748H16.0846C16.418 0.666748 16.668 0.833415 16.918 1.08341C17.168 1.33341 17.3346 1.58341 17.3346 1.91675V4.83341H15.668V2.33341H13.168V0.666748ZM4.83464 0.666748V2.33341H2.33464V4.83341H0.667969V1.91675C0.667969 1.58341 0.834635 1.33341 1.08464 1.08341C1.33464 0.833415 1.58464 0.666748 1.91797 0.666748H4.83464Z" fill="#CCCCCC"/>
</svg>
