<svg width="20" height="20" viewBox="0 0 20 20" fill="none" xmlns="http://www.w3.org/2000/svg">
<path d="M19.954 0.857502C19.9994 0.743922 20.0106 0.619497 19.986 0.499651C19.9614 0.379806 19.9022 0.269811 19.8157 0.183303C19.7292 0.0967945 19.6192 0.0375777 19.4993 0.0129933C19.3795 -0.011591 19.2551 -0.000461602 19.1415 0.0450017L0.957734 7.31875H0.956484L0.391484 7.54375C0.284472 7.58644 0.191341 7.65787 0.122379 7.75016C0.0534163 7.84246 0.0113066 7.95202 0.000700899 8.06674C-0.00990477 8.18146 0.0114064 8.29688 0.0622803 8.40025C0.113154 8.50362 0.191611 8.59092 0.288984 8.6525L0.801484 8.9775L0.802734 8.98L7.04648 12.9525L11.019 19.1963L11.0215 19.1988L11.3465 19.7113C11.4083 19.8083 11.4956 19.8863 11.5989 19.9369C11.7022 19.9874 11.8174 20.0085 11.9319 19.9978C12.0464 19.987 12.1558 19.9449 12.2479 19.8761C12.34 19.8072 12.4113 19.7143 12.454 19.6075L19.954 0.857502ZM17.6627 3.22L8.29523 12.5875L8.02648 12.165C7.97724 12.0875 7.91151 12.0217 7.83398 11.9725L7.41148 11.7038L16.779 2.33625L18.2515 1.7475L17.664 3.22H17.6627Z" fill="white"/>
</svg>
