<svg xmlns="http://www.w3.org/2000/svg" width="41.986" height="41.986" viewBox="0 0 41.986 41.986">
    <path d="M14.87 11.406V3.464C14.87 1 13.751 0 10.969 0H3.9C1.12 0 0 1 0 3.464v7.925c0 2.484 1.12 3.464 3.9 3.464h7.068c2.783.017 3.902-.98 3.902-3.447z" transform="translate(23.617 3.499)" style="stroke:#fff;stroke-linecap:round;stroke-linejoin:round;stroke-width:2.5px;fill:none"/>
    <path data-name="Vector" d="M14.87 10.969V3.9c0-2.782-1.12-3.9-3.9-3.9H3.9C1.12 0 0 1.12 0 3.9v7.068c0 2.782 1.12 3.9 3.9 3.9h7.068c2.783.002 3.902-1.117 3.902-3.899z" transform="translate(23.617 23.617)" style="stroke:#fff;stroke-linecap:round;stroke-linejoin:round;stroke-width:2.5px;fill:none"/>
    <path data-name="Vector" d="M14.87 11.406V3.464C14.87 1 13.751 0 10.969 0H3.9C1.12 0 0 1 0 3.464v7.925c0 2.484 1.12 3.464 3.9 3.464h7.068c2.783.017 3.902-.98 3.902-3.447z" transform="translate(3.499 3.499)" style="stroke:#fff;stroke-linecap:round;stroke-linejoin:round;stroke-width:2.5px;fill:none"/>
    <path data-name="Vector" d="M14.87 10.969V3.9c0-2.782-1.12-3.9-3.9-3.9H3.9C1.12 0 0 1.12 0 3.9v7.068c0 2.782 1.12 3.9 3.9 3.9h7.068c2.783.002 3.902-1.117 3.902-3.899z" transform="translate(3.499 23.617)" style="stroke:#fff;stroke-linecap:round;stroke-linejoin:round;stroke-width:2.5px;fill:none"/>
</svg>
