<svg width="14" height="14" viewBox="0 0 14 14" fill="none" xmlns="http://www.w3.org/2000/svg">
<path d="M4.9987 6.83325C4.5387 6.83325 4.16536 7.20659 4.16536 7.66659C4.16536 8.12659 4.5387 8.49992 4.9987 8.49992C5.4587 8.49992 5.83203 8.12659 5.83203 7.66659C5.83203 7.20659 5.4587 6.83325 4.9987 6.83325ZM8.9987 6.83325C8.5387 6.83325 8.16537 7.20659 8.16537 7.66659C8.16537 8.12659 8.5387 8.49992 8.9987 8.49992C9.4587 8.49992 9.83203 8.12659 9.83203 7.66659C9.83203 7.20659 9.4587 6.83325 8.9987 6.83325ZM6.9987 0.333252C3.3187 0.333252 0.332031 3.31992 0.332031 6.99992C0.332031 10.6799 3.3187 13.6666 6.9987 13.6666C10.6787 13.6666 13.6654 10.6799 13.6654 6.99992C13.6654 3.31992 10.6787 0.333252 6.9987 0.333252ZM6.9987 12.3333C4.0587 12.3333 1.66536 9.93992 1.66536 6.99992C1.66536 6.80659 1.6787 6.61325 1.6987 6.42659C3.27203 5.72659 4.5187 4.43992 5.17203 2.84659C6.3787 4.55325 8.36537 5.66659 10.612 5.66659C11.132 5.66659 11.632 5.60659 12.112 5.49325C12.252 5.96659 12.332 6.47325 12.332 6.99992C12.332 9.93992 9.9387 12.3333 6.9987 12.3333Z" fill="#4D4D4D"/>
</svg>
