<svg width="16" height="8" viewBox="0 0 16 8" fill="none" xmlns="http://www.w3.org/2000/svg">
<path d="M2.66667 4.66667C3.4 4.66667 4 4.06667 4 3.33333C4 2.6 3.4 2 2.66667 2C1.93333 2 1.33333 2.6 1.33333 3.33333C1.33333 4.06667 1.93333 4.66667 2.66667 4.66667ZM3.42 5.4C3.17333 5.36 2.92667 5.33333 2.66667 5.33333C2.00667 5.33333 1.38 5.47333 0.813333 5.72C0.32 5.93333 0 6.41333 0 6.95333V8H3V6.92667C3 6.37333 3.15333 5.85333 3.42 5.4ZM13.3333 4.66667C14.0667 4.66667 14.6667 4.06667 14.6667 3.33333C14.6667 2.6 14.0667 2 13.3333 2C12.6 2 12 2.6 12 3.33333C12 4.06667 12.6 4.66667 13.3333 4.66667ZM16 6.95333C16 6.41333 15.68 5.93333 15.1867 5.72C14.62 5.47333 13.9933 5.33333 13.3333 5.33333C13.0733 5.33333 12.8267 5.36 12.58 5.4C12.8467 5.85333 13 6.37333 13 6.92667V8H16V6.95333ZM10.8267 5.1C10.0467 4.75333 9.08667 4.5 8 4.5C6.91333 4.5 5.95333 4.76 5.17333 5.1C4.45333 5.42 4 6.14 4 6.92667V8H12V6.92667C12 6.14 11.5467 5.42 10.8267 5.1ZM5.38 6.66667C5.44 6.51333 5.46667 6.40667 5.98667 6.20667C6.63333 5.95333 7.31333 5.83333 8 5.83333C8.68667 5.83333 9.36667 5.95333 10.0133 6.20667C10.5267 6.40667 10.5533 6.51333 10.62 6.66667H5.38ZM8 1.33333C8.36667 1.33333 8.66667 1.63333 8.66667 2C8.66667 2.36667 8.36667 2.66667 8 2.66667C7.63333 2.66667 7.33333 2.36667 7.33333 2C7.33333 1.63333 7.63333 1.33333 8 1.33333ZM8 0C6.89333 0 6 0.893333 6 2C6 3.10667 6.89333 4 8 4C9.10667 4 10 3.10667 10 2C10 0.893333 9.10667 0 8 0Z" fill="#4D4D4D"/>
</svg>
