<svg width="12" height="14" viewBox="0 0 12 14" fill="none" xmlns="http://www.w3.org/2000/svg">
<path d="M2.66667 10.0001H7.33333V11.3334H2.66667V10.0001ZM2.66667 7.33341H9.33333V8.66675H2.66667V7.33341ZM2.66667 4.66675H9.33333V6.00008H2.66667V4.66675ZM10.6667 2.00008H7.88C7.6 1.22675 6.86667 0.666748 6 0.666748C5.13333 0.666748 4.4 1.22675 4.12 2.00008H1.33333C1.24 2.00008 1.15333 2.00675 1.06667 2.02675C0.806667 2.08008 0.573333 2.21341 0.393333 2.39341C0.273333 2.51341 0.173333 2.66008 0.106667 2.82008C0.0400001 2.97341 0 3.14675 0 3.33341V12.6667C0 12.8467 0.0400001 13.0267 0.106667 13.1867C0.173333 13.3467 0.273333 13.4867 0.393333 13.6134C0.573333 13.7934 0.806667 13.9267 1.06667 13.9801C1.15333 13.9934 1.24 14.0001 1.33333 14.0001H10.6667C11.4 14.0001 12 13.4001 12 12.6667V3.33341C12 2.60008 11.4 2.00008 10.6667 2.00008ZM6 1.83341C6.27333 1.83341 6.5 2.06008 6.5 2.33341C6.5 2.60675 6.27333 2.83341 6 2.83341C5.72667 2.83341 5.5 2.60675 5.5 2.33341C5.5 2.06008 5.72667 1.83341 6 1.83341ZM10.6667 12.6667H1.33333V3.33341H10.6667V12.6667Z" fill="#4D4D4D"/>
</svg>
