<svg width="14" height="14" viewBox="0 0 14 14" fill="none" xmlns="http://www.w3.org/2000/svg">
<path d="M6.9987 0.333252C3.33203 0.333252 0.332031 3.33325 0.332031 6.99992C0.332031 10.6666 3.33203 13.6666 6.9987 13.6666C10.6654 13.6666 13.6654 10.6666 13.6654 6.99992C13.6654 3.33325 10.6654 0.333252 6.9987 0.333252ZM6.9987 12.3333C4.0587 12.3333 1.66536 9.93992 1.66536 6.99992C1.66536 4.05992 4.0587 1.66659 6.9987 1.66659C9.9387 1.66659 12.332 4.05992 12.332 6.99992C12.332 9.93992 9.9387 12.3333 6.9987 12.3333ZM7.33203 3.66659H6.33203V7.66659L9.7987 9.79992L10.332 8.93325L7.33203 7.13325V3.66659Z" fill="#4D4D4D"/>
</svg>
