<svg width="14" height="14" viewBox="0 0 14 14" fill="none" xmlns="http://www.w3.org/2000/svg">
<path d="M11.9552 7.65325C11.9818 7.43992 12.0018 7.22658 12.0018 6.99992C12.0018 6.77325 11.9818 6.55992 11.9552 6.34659L13.3618 5.24658C13.4885 5.14658 13.5218 4.96658 13.4418 4.81992L12.1085 2.51325C12.0485 2.40659 11.9352 2.34659 11.8152 2.34659C11.7752 2.34659 11.7352 2.35325 11.7018 2.36659L10.0418 3.03325C9.69518 2.76659 9.32185 2.54659 8.91518 2.37992L8.66185 0.613252C8.64185 0.453252 8.50185 0.333252 8.33518 0.333252H5.66851C5.50185 0.333252 5.36185 0.453252 5.34185 0.613252L5.08851 2.37992C4.68185 2.54659 4.30851 2.77325 3.96185 3.03325L2.30185 2.36659C2.26185 2.35325 2.22185 2.34659 2.18185 2.34659C2.06851 2.34659 1.95518 2.40659 1.89518 2.51325L0.561846 4.81992C0.475179 4.96658 0.515179 5.14658 0.641846 5.24658L2.04851 6.34659C2.02185 6.55992 2.00185 6.77992 2.00185 6.99992C2.00185 7.21992 2.02185 7.43992 2.04851 7.65325L0.641846 8.75325C0.515179 8.85325 0.481846 9.03325 0.561846 9.17992L1.89518 11.4866C1.95518 11.5933 2.06851 11.6533 2.18851 11.6533C2.22851 11.6533 2.26851 11.6466 2.30185 11.6333L3.96185 10.9666C4.30851 11.2333 4.68185 11.4533 5.08851 11.6199L5.34185 13.3866C5.36185 13.5466 5.50185 13.6666 5.66851 13.6666H8.33518C8.50185 13.6666 8.64185 13.5466 8.66185 13.3866L8.91518 11.6199C9.32185 11.4533 9.69518 11.2266 10.0418 10.9666L11.7018 11.6333C11.7418 11.6466 11.7818 11.6533 11.8218 11.6533C11.9352 11.6533 12.0485 11.5933 12.1085 11.4866L13.4418 9.17992C13.5218 9.03325 13.4885 8.85325 13.3618 8.75325L11.9552 7.65325ZM10.6352 6.51325C10.6618 6.71992 10.6685 6.85992 10.6685 6.99992C10.6685 7.13992 10.6552 7.28658 10.6352 7.48658L10.5418 8.23992L11.1352 8.70658L11.8552 9.26658L11.3885 10.0733L10.5418 9.73325L9.84851 9.45325L9.24851 9.90658C8.96185 10.1199 8.68851 10.2799 8.41518 10.3933L7.70851 10.6799L7.60185 11.4333L7.46851 12.3333H6.53518L6.40851 11.4333L6.30185 10.6799L5.59518 10.3933C5.30851 10.2733 5.04185 10.1199 4.77518 9.91992L4.16851 9.45325L3.46185 9.73992L2.61518 10.0799L2.14851 9.27325L2.86851 8.71325L3.46185 8.24658L3.36851 7.49325C3.34851 7.28658 3.33518 7.13325 3.33518 6.99992C3.33518 6.86658 3.34851 6.71325 3.36851 6.51325L3.46185 5.75992L2.86851 5.29325L2.14851 4.73325L2.61518 3.92658L3.46185 4.26659L4.15518 4.54658L4.75518 4.09325C5.04185 3.87992 5.31518 3.71992 5.58851 3.60659L6.29518 3.31992L6.40185 2.56659L6.53518 1.66659H7.46185L7.58851 2.56659L7.69518 3.31992L8.40185 3.60659C8.68851 3.72658 8.95518 3.87992 9.22185 4.07992L9.82851 4.54658L10.5352 4.25992L11.3818 3.91992L11.8485 4.72658L11.1352 5.29325L10.5418 5.75992L10.6352 6.51325ZM7.00185 4.33325C5.52851 4.33325 4.33518 5.52659 4.33518 6.99992C4.33518 8.47325 5.52851 9.66658 7.00185 9.66658C8.47518 9.66658 9.66851 8.47325 9.66851 6.99992C9.66851 5.52659 8.47518 4.33325 7.00185 4.33325ZM7.00185 8.33325C6.26851 8.33325 5.66851 7.73325 5.66851 6.99992C5.66851 6.26658 6.26851 5.66658 7.00185 5.66658C7.73518 5.66658 8.33518 6.26658 8.33518 6.99992C8.33518 7.73325 7.73518 8.33325 7.00185 8.33325Z" fill="#4D4D4D"/>
</svg>
