<svg xmlns="http://www.w3.org/2000/svg" xmlns:xlink="http://www.w3.org/1999/xlink" width="193.544" height="201.462" viewBox="0 0 193.544 201.462">
    <defs>
        <linearGradient id="linear-gradient" y1=".513" x2=".972" y2=".513" gradientUnits="objectBoundingBox">
            <stop offset="0" stop-color="#83a6ff"/>
            <stop offset="1" stop-color="#5a78ff"/>
        </linearGradient>
        <linearGradient id="linear-gradient-2" x1=".023" y1=".505" x2=".993" y2=".505" gradientUnits="objectBoundingBox">
            <stop offset="0" stop-color="#ff66a9"/>
            <stop offset="1" stop-color="#f53689"/>
        </linearGradient>
        <linearGradient id="linear-gradient-3" x1=".004" y1=".506" x2=".999" y2=".506" xlink:href="#linear-gradient"/>
        <linearGradient id="linear-gradient-4" x1=".232" y1=".091" x2=".789" y2=".925" xlink:href="#linear-gradient"/>
        <linearGradient id="linear-gradient-5" x1=".002" y1=".5" x2="1" y2=".5" xlink:href="#linear-gradient-2"/>
        <linearGradient id="linear-gradient-6" x1=".491" y1=".61" x2=".491" y2=".157" gradientUnits="objectBoundingBox">
            <stop offset="0" stop-color="#fff"/>
            <stop offset=".991" stop-color="#e6edf7"/>
        </linearGradient>
        <filter id="Path" x="8.089" y="0" width="164.737" height="201.462" filterUnits="userSpaceOnUse">
            <feOffset dy="11"/>
            <feGaussianBlur stdDeviation="11" result="blur"/>
            <feFlood flood-color="#657a93" flood-opacity=".18"/>
            <feComposite operator="in" in2="blur"/>
            <feComposite in="SourceGraphic"/>
        </filter>
        <filter id="Path-2" x="116.576" y="70.038" width="76.968" height="78.096" filterUnits="userSpaceOnUse">
            <feOffset dy="5"/>
            <feGaussianBlur stdDeviation="4" result="blur-2"/>
            <feFlood flood-color="#1d4bff" flood-opacity=".22"/>
            <feComposite operator="in" in2="blur-2"/>
            <feComposite in="SourceGraphic"/>
        </filter>
        <style>
            .cls-1{fill:#eaeef9}.cls-4{fill:#fff}.cls-5{fill:#dae1ed}.cls-6{fill:#ced7e2}.cls-13{fill:#252e48}
        </style>
    </defs>
    <g id="_47" data-name="47" transform="translate(0 8.031)">
        <path id="Path-3" data-name="Path" class="cls-1" d="M152.4 76.385a76.781 76.781 0 0 1-15.486 46.188 75.361 75.361 0 0 1-19.163 17.64A76.248 76.248 0 1 1 76.2 0a76.809 76.809 0 0 1 41.549 12.269 78.339 78.339 0 0 1 19.163 17.791A76.229 76.229 0 0 1 152.4 76.385z" transform="translate(15.638 5.542)"/>
        <path id="Path-4" data-name="Path" class="cls-1" d="M5.42 8.074A4.136 4.136 0 1 0 .2 5.426a4.137 4.137 0 0 0 5.22 2.648z" transform="translate(18.398 10.464)"/>
        <path id="Path-5" data-name="Path" class="cls-1" d="M3.414 5.088A2.609 2.609 0 1 0 .128 3.409a2.6 2.6 0 0 0 3.286 1.679z" transform="translate(29.305)"/>
        <path id="Path-6" data-name="Path" d="M2.607 5.219A2.61 2.61 0 1 0 0 2.6a2.618 2.618 0 0 0 2.607 2.619z" transform="translate(0 86.692)" style="fill:url(#linear-gradient)"/>
        <path id="Path-7" data-name="Path" class="cls-1" d="M9.757 10.127a5.829 5.829 0 1 0-8.231-.378 5.825 5.825 0 0 0 8.231.378z" transform="translate(160.519 36.02)"/>
        <path id="Path-8" data-name="Path" d="M2.452 4.917A2.458 2.458 0 1 0 0 2.451a2.46 2.46 0 0 0 2.452 2.466z" transform="translate(166.504 15.814)" style="fill:url(#linear-gradient-2)"/>
        <path id="Path-9" data-name="Path" class="cls-1" d="M2.607 5.219A2.61 2.61 0 1 0 0 2.617a2.6 2.6 0 0 0 2.607 2.602z" transform="translate(88.772 4.922)"/>
        <g transform="translate(0 -8.03)" style="filter:url(#Path)">
            <path id="Path-10" data-name="Path" class="cls-4" d="M98.737 0H0v135.462h98.737z" transform="translate(41.09 22)"/>
        </g>
        <path id="Path-11" data-name="Path" class="cls-5" d="M1.227 2.451A1.325 1.325 0 0 1 0 1.225 1.313 1.313 0 0 1 1.227 0h72.519a1.312 1.312 0 0 1 1.227 1.225 1.324 1.324 0 0 1-1.227 1.225z" transform="translate(52.894 50.338)"/>
        <path id="Path-12" data-name="Path" class="cls-5" d="M1.227 2.451A1.313 1.313 0 0 1 0 1.225 1.325 1.325 0 0 1 1.227 0h72.519a1.324 1.324 0 0 1 1.227 1.225 1.312 1.312 0 0 1-1.227 1.225z" transform="translate(52.894 59.536)"/>
        <path id="Path-13" data-name="Path" class="cls-5" d="M1.227 2.466A1.327 1.327 0 0 1 0 1.225 1.325 1.325 0 0 1 1.227 0h72.519a1.324 1.324 0 0 1 1.227 1.225 1.326 1.326 0 0 1-1.227 1.241z" transform="translate(52.894 68.735)"/>
        <path id="Path-14" data-name="Path" class="cls-5" d="M1.227 2.451A1.313 1.313 0 0 1 0 1.225 1.313 1.313 0 0 1 1.227 0h72.519a1.312 1.312 0 0 1 1.227 1.225 1.312 1.312 0 0 1-1.227 1.225z" transform="translate(52.894 78.099)"/>
        <path id="Path-15" data-name="Path" class="cls-5" d="M1.227 2.451A1.313 1.313 0 0 1 0 1.225 1.325 1.325 0 0 1 1.227 0h72.519a1.324 1.324 0 0 1 1.227 1.225 1.312 1.312 0 0 1-1.227 1.225z" transform="translate(52.894 87.297)"/>
        <path id="Path-16" data-name="Path" class="cls-5" d="M1.227 2.451A1.325 1.325 0 0 1 0 1.225 1.313 1.313 0 0 1 1.227 0h31.891a1.312 1.312 0 0 1 1.225 1.225 1.324 1.324 0 0 1-1.225 1.225z" transform="translate(52.894 96.511)"/>
        <path id="Path-17" data-name="Path" class="cls-6" d="M35.263 2.769H1.38A1.384 1.384 0 0 1 1.38 0h33.883a1.384 1.384 0 0 1 0 2.769z" transform="translate(72.059 26.858)"/>
        <path id="Path-18" data-name="Path" class="cls-6" d="M18.091 2.753H1.38A1.368 1.368 0 0 1 0 1.377 1.368 1.368 0 0 1 1.38 0h16.711a1.368 1.368 0 0 1 1.38 1.377 1.368 1.368 0 0 1-1.38 1.376z" transform="translate(80.646 34.075)"/>
        <path id="Shape" d="M.475 23.184a1.2 1.2 0 0 1 .308-1.543 20.974 20.974 0 0 0 2.147-1.68C-.444 15.816-.9 8.449 1.55 3.7 4-.75 9.369-1.219 11.362 2.473a9.412 9.412 0 0 1 .766 6.127 20.029 20.029 0 0 1-4.752 10.59v.151a18.145 18.145 0 0 0 7.052-2.3.835.835 0 0 0 .46-.772c.154-3.827-.46-5.355 1.687-7.972a2.855 2.855 0 0 1 3.374-.772 3.363 3.363 0 0 1 2.146 2.768 6.089 6.089 0 0 1-1.687 5.069c-2.606 2.9-3.219 1.981-2.606 3.827.152.62.767.3 1.073.151a17.315 17.315 0 0 0 2.76-2c2.3-2.451 3.066-5.674 5.52-5.053 1.532.453 1.687 2 1.992 4.145.92-1.543 1.841-3.07 3.526-3.842a1.193 1.193 0 0 1 1.687 1.074 1.16 1.16 0 0 1-.767 1.074c-1.381.772-1.839 2.6-3.065 3.994-1.074 1.377-2.761 1.074-3.374-.62-.308-.923-.308-1.846-.613-2.921a65.245 65.245 0 0 1-4.294 5.069 6.856 6.856 0 0 1-3.679 1.694c-1.839.151-2.759-.468-3.219-2.149a.482.482 0 0 1-.155-.317c-.152 0-4.292 1.543-4.906 1.694a28.536 28.536 0 0 1-3.987.3 4.187 4.187 0 0 0-1.379 0c-.308.151-.152 0-2.606 2a1.364 1.364 0 0 1-.812.264 1.13 1.13 0 0 1-1.029-.562z" transform="translate(91.668 110.604)" style="fill:url(#linear-gradient-3)"/>
        <g transform="translate(0 -8.03)" style="filter:url(#Path-2)">
            <path id="Path-19" data-name="Path" d="M52.34 3.419c-2.147 3.071-4.294 5.976-6.133 9.2-2.607 4.3-3.986 3.071-10.578 5.068l5.826 1.377c.153 0 .153 0 .306.151a.759.759 0 0 1 .154 1.074c-.92 1.377-1.84 2.769-2.759 4.145a46.188 46.188 0 0 1-28.365 17.64 4.97 4.97 0 0 0-3.526 2.769c-1.38 2.753-2.607 5.522-3.986 8.275a1.623 1.623 0 0 1-2.3.772 1.621 1.621 0 0 1-.767-2.3c.767-1.694 1.534-3.374 2.3-4.917a5.527 5.527 0 0 0 0-4.145 31.124 31.124 0 0 1-1.533-7.5A31.7 31.7 0 0 1 2.051 27.5a36.572 36.572 0 0 1 4.906-11.2l.154-.166c.153 0 .46 0 .46.318a12.582 12.582 0 0 0 .613 1.831c.307-1.528.767-3.056 1.227-4.6a5.918 5.918 0 0 1 1.073-1.846 36.724 36.724 0 0 1 8.28-6.278h.153a.327.327 0 0 1 .307.3V8.79a43 43 0 0 1 4.139-5.068 4.015 4.015 0 0 1 1.687-1.074 44.054 44.054 0 0 1 26.677-1.075c1.533.303 1.533.62.613 1.846z" transform="translate(128.58 77.04)" style="fill:url(#linear-gradient-4)"/>
        </g>
        <path id="Path-20" data-name="Path" d="M34.649 3.467C17.325 9.912 8.126 24.178.766 39.67a5.534 5.534 0 0 0 0-4.145C.46 34.6.306 33.845 0 32.922c.153 0 .153-.151.306-.151C7.818 18.5 17.171 6.235 33.424.093a1.657 1.657 0 0 1 2.145 1.074 1.823 1.823 0 0 1-.92 2.3z" transform="translate(130.321 75.858)" style="opacity:.3;fill:#fff"/>
        <path id="Path-21" data-name="Path" d="M45.69 22.859a22.364 22.364 0 0 1-7.36 16.717 24.337 24.337 0 0 1-3.986 2.92 22.184 22.184 0 0 1-11.5 3.071 22.589 22.589 0 0 1-11.5-3.071c-.46-.3-1.074-.62-1.534-.923A22.563 22.563 0 0 1 0 22.859a22.845 22.845 0 1 1 45.69 0z" transform="translate(14.104 13.666)" style="fill:#e9f0f8"/>
        <path id="Shape-2" data-name="Shape" class="cls-4" d="M1.379 33.737 0 33.282v-.3a10.141 10.141 0 0 1 3.526-6.293 2.937 2.937 0 0 1 1.227-.453 6.127 6.127 0 0 1-.767-.167c-.155 0-.155 0-.308-.151a2.975 2.975 0 0 1-1.378-.759c-.152-.166-.308-.166-.308-.319l-.3-.3-.308-.3a.792.792 0 0 1-.306-.621c-.152-.151-.152-.3-.306-.6 0-.151-.154-.317-.154-.621a3.163 3.163 0 0 1 .154-1.679c0-.166.154-.317.154-.468.152-.3.152-.455.306-.772a2.67 2.67 0 0 1 .613-.757c.152-.151.152-.151.308-.317l.459-.453a7.467 7.467 0 0 1 1.073-.772 6.7 6.7 0 0 1 1.839-.756l1.069-.324a.149.149 0 0 0 .152-.151c-.919-.756-1.839-.6-2.3-2a2.39 2.39 0 0 1 .152-1.83c0-.151.154-.151.154-.317.152-.3.152-.151 0-.455v-2.6a6.079 6.079 0 0 1 .46-2.3A9.155 9.155 0 0 1 7.666 2.6l.152-.151c.155-.151.46-.3.614-.468A10.758 10.758 0 0 1 11.959.3 10.5 10.5 0 0 1 14.1 0h1.074a1.966 1.966 0 0 1 .926.151 2.2 2.2 0 0 1 .92.3c.306 0 .46.151.767.3a7.025 7.025 0 0 1 1.381.771 2.985 2.985 0 0 1 .919.621l.152.151a1.835 1.835 0 0 1 .768.756 11.5 11.5 0 0 1 1.53 2.15c.155.319.308.621.46.923a.938.938 0 0 1 .154.621c0 .151.154.3.154.453a3.427 3.427 0 0 1 .152 1.225v2.149a6.942 6.942 0 0 0 .46 1.694 2.631 2.631 0 0 1-1.993 2.753 10.273 10.273 0 0 1-1.532 3.54 15.106 15.106 0 0 1-2.607 2.754v3.221s.152.3 1.686.3h1.381a7.222 7.222 0 0 1 3.22.772 9.658 9.658 0 0 1 4.292 4.6c.154.151.154.468.308.62a23.5 23.5 0 0 1-3.987 2.906z" transform="translate(24.071 21.957)"/>
        <path id="Path-22" data-name="Path" d="M28.516 7.05a24.272 24.272 0 0 1-3.986 2.92 22.184 22.184 0 0 1-11.5 3.071A22.593 22.593 0 0 1 1.533 9.97C1.073 9.667.46 9.35 0 9.047v-.3a10.136 10.136 0 0 1 3.525-6.296A2.956 2.956 0 0 1 4.752 2a6.28 6.28 0 0 1-.767-.166c-.153 0-.153 0-.306-.151h-.154a1.167 1.167 0 0 1-.613-.3A2.1 2.1 0 0 1 2.3.923C2.145.756 1.992.756 1.992.605L1.685.3 1.38 0h5.366a8.1 8.1 0 0 0 6.286 3.374h.46A7.983 7.983 0 0 0 19.471.756h1.38a7.205 7.205 0 0 1 3.219.772 9.657 9.657 0 0 1 4.294 4.6 1.653 1.653 0 0 0 .152.922z" transform="translate(23.918 46.193)" style="fill:url(#linear-gradient-5)"/>
        <path id="Path-23" data-name="Path" d="M8.891 0v3.071L0 3.374l.46-1.982c.153 0 .153.151.306.151a3.19 3.19 0 0 1 .92.605 2.135 2.135 0 0 0 .614.469l.153.151v-2L2.3.62c1.379.605 3.526 1.074 6.591-.62z" transform="translate(32.811 43.424)" style="fill:url(#linear-gradient-6)"/>
        <path id="Path-24" data-name="Path" class="cls-13" d="M18.943 8.9a13.328 13.328 0 0 1-5.519.772 12.959 12.959 0 0 1-7.973-3.378 8.462 8.462 0 0 1-4.6 4.6 2.623 2.623 0 0 1-.767.3v-.151a9.49 9.49 0 0 1 .46-4.6A8.3 8.3 0 0 1 3 2.6l.154-.151c.153-.151.46-.3.613-.454A10.527 10.527 0 0 1 7.291.3 10.486 10.486 0 0 1 9.437 0a9.5 9.5 0 0 1 8.433 5.068 9.971 9.971 0 0 1 1.073 3.207z" transform="translate(28.433 22.259)"/>
        <path id="Path-25" data-name="Path" class="cls-13" d="M11.894 13.8c-.767.923-2.147 1.074-3.526.923C9.594 13.495 8.98 9.35 4.381 9.8c-6.286-1.225-5.519-7.67.46-9.5L5.915 0l.153.151a11.086 11.086 0 0 0 1.84 3.222c-2.452 2.148.92 2.753 2.607 4.3 1.532.754 2.758 4.445 1.379 6.127z" transform="translate(24.289 38.22)"/>
        <path id="Path-26" data-name="Path" d="M45.69 22.859a22.364 22.364 0 0 1-7.36 16.717 24.337 24.337 0 0 1-3.986 2.92 22.184 22.184 0 0 1-11.5 3.071 22.589 22.589 0 0 1-11.5-3.071c-.46-.3-1.074-.62-1.534-.923A22.563 22.563 0 0 1 0 22.859a22.845 22.845 0 1 1 45.69 0z" transform="translate(14.104 13.666)" style="fill:none;stroke:#fff;stroke-linecap:round;stroke-linejoin:round;stroke-miterlimit:10;stroke-width:1.492px"/>
        <path id="Shape-3" data-name="Shape" class="cls-5" d="M9.968 21.8c-1.839-1.377-2.452-1.694-3.679-1.846-1.532-.151-2.912-.3-3.374-2a3.351 3.351 0 0 1-.152-1.225 6.084 6.084 0 0 0-1.379-3.057C.31 12.434-.456 11.36.31 9.983 1.231 8.455 2.15 7.835 2.15 6a4.814 4.814 0 0 1 .15-1.538 2.773 2.773 0 0 1 2.61-2.149c.46 0 .919-.151 1.379-.151 1.533-.151 1.992-1.225 3.987-2a2 2 0 0 1 1.839.151c.46.319.92.621 1.534 1.074 1.379 1.074 2.3.621 4.292 1.225a2.349 2.349 0 0 1 1.535 1.846 8.109 8.109 0 0 0 .613 2.768c.767 1.528 2.3 2.3 2.146 3.979a1.623 1.623 0 0 1-.306.923 11.9 11.9 0 0 0-1.839 3.374 3.4 3.4 0 0 0-.154 1.225 2.567 2.567 0 0 1-.919 2.149c-1.841 1.845-3.526.468-5.213 2.147a3.749 3.749 0 0 1-2.508 1.221 2.163 2.163 0 0 1-1.328-.444z" transform="translate(52.955 112.216)"/>
        <path id="Path-27" data-name="Path" class="cls-5" d="M2.8 1.1a6.517 6.517 0 0 1 9.05 1.835 6.177 6.177 0 0 1-1.533 8.593l-.153.151a6.658 6.658 0 0 1-9.046-1.83 6.179 6.179 0 0 1 1.534-8.594c0-.155 0-.155.148-.155z" transform="translate(57.359 117.267)"/>
    </g>
</svg>
