<svg xmlns="http://www.w3.org/2000/svg" xmlns:xlink="http://www.w3.org/1999/xlink" width="217.502" height="180.054" viewBox="0 0 217.502 180.054">
    <defs>
        <linearGradient id="linear-gradient" x1=".232" y1=".089" x2=".788" y2=".925" gradientUnits="objectBoundingBox">
            <stop offset="0" stop-color="#ff66a9"/>
            <stop offset="1" stop-color="#f53689"/>
        </linearGradient>
        <linearGradient id="linear-gradient-2" x1=".266" y1=".248" x2=".666" y2=".619" gradientUnits="objectBoundingBox">
            <stop offset="0" stop-color="#e81778"/>
            <stop offset="1" stop-color="#e01f79" stop-opacity="0"/>
        </linearGradient>
        <linearGradient id="linear-gradient-3" x1=".917" y1=".933" x2=".101" y2=".115" gradientUnits="objectBoundingBox">
            <stop offset=".011" stop-color="#ffc9e3"/>
            <stop offset="1" stop-color="#fff"/>
        </linearGradient>
        <linearGradient id="linear-gradient-4" x1="-.001" y1=".496" x2="1.004" y2=".496" gradientUnits="objectBoundingBox">
            <stop offset="0" stop-color="#83a6ff"/>
            <stop offset="1" stop-color="#5a78ff"/>
        </linearGradient>
        <linearGradient id="linear-gradient-5" x1="-.007" y1=".489" x2=".997" y2=".489" xlink:href="#linear-gradient-4"/>
        <linearGradient id="linear-gradient-6" x1=".002" y1=".493" x2="1.009" y2=".493" xlink:href="#linear-gradient"/>
        <linearGradient id="linear-gradient-7" x1=".232" y1=".091" x2=".789" y2=".925" xlink:href="#linear-gradient-4"/>
        <filter id="Path" x="27.34" y="0" width="163.129" height="180.054" filterUnits="userSpaceOnUse">
            <feOffset dy="11"/>
            <feGaussianBlur stdDeviation="11" result="blur"/>
            <feFlood flood-color="#657a93" flood-opacity=".18"/>
            <feComposite operator="in" in2="blur"/>
            <feComposite in="SourceGraphic"/>
        </filter>
        <filter id="Path-2" x="7.387" y="106.153" width="61.263" height="61.149" filterUnits="userSpaceOnUse">
            <feOffset dy="5"/>
            <feGaussianBlur stdDeviation="4" result="blur-2"/>
            <feFlood flood-color="#f74190" flood-opacity=".302"/>
            <feComposite operator="in" in2="blur-2"/>
            <feComposite in="SourceGraphic"/>
        </filter>
        <filter id="Path-3" x="15.084" y=".145" width="175.232" height="174.497" filterUnits="userSpaceOnUse">
            <feOffset dy="11"/>
            <feGaussianBlur stdDeviation="11" result="blur-3"/>
            <feFlood flood-color="#657a93" flood-opacity=".18"/>
            <feComposite operator="in" in2="blur-3"/>
            <feComposite in="SourceGraphic"/>
        </filter>
        <filter id="Path-4" x="117.145" y="26.242" width="84.957" height="85.281" filterUnits="userSpaceOnUse">
            <feOffset dy="5"/>
            <feGaussianBlur stdDeviation="4" result="blur-4"/>
            <feFlood flood-color="#1d4bff" flood-opacity=".22"/>
            <feComposite operator="in" in2="blur-4"/>
            <feComposite in="SourceGraphic"/>
        </filter>
        <style>
            .cls-1{fill:#eaeef9}.cls-3{fill:#ced7e2}.cls-6{fill:#dfe7f0}.cls-11{fill:#fff}.cls-12{fill:#e3eaf2}.cls-15{fill:#1c3754}.cls-20{fill:#526dff}.cls-23{fill:#dae1ed}.cls-26{fill:#172d45}
        </style>
    </defs>
    <g id="_43" data-name="43" transform="translate(0 1.251)">
        <path id="Path-5" data-name="Path" class="cls-1" d="M153.005 76.223a76.753 76.753 0 0 1-15.546 46.256 78.446 78.446 0 0 1-19.241 17.821A76.385 76.385 0 1 1 76.5 0a77.223 77.223 0 0 1 41.715 12.293 78.445 78.445 0 0 1 19.242 17.818 75.041 75.041 0 0 1 15.548 46.112z" transform="translate(32.941 4.654)"/>
        <path id="Path-6" data-name="Path" class="cls-1" d="M5.038 7.553a3.878 3.878 0 0 0 2.47-4.876A3.85 3.85 0 1 0 .19 5.07a3.851 3.851 0 0 0 4.848 2.483z" transform="translate(41.552 13.178)"/>
        <path id="Path-7" data-name="Path" class="cls-1" d="M3.426 5.134a2.64 2.64 0 0 0 1.68-3.317A2.619 2.619 0 1 0 .129 3.448a2.612 2.612 0 0 0 3.297 1.686z" transform="translate(51.565 2.964)"/>
        <path id="Path-8" data-name="Path" class="cls-1" d="M9.8 10.218a5.9 5.9 0 0 0 .372-8.3A5.83 5.83 0 0 0 1.9 1.536a5.915 5.915 0 0 0-.372 8.319 5.829 5.829 0 0 0 8.272.363z" transform="translate(175.326 20.337)"/>
        <path id="Path-9" data-name="Path" class="cls-1" d="M4.124 4.31A2.484 2.484 0 0 0 4.28.812 2.446 2.446 0 0 0 .8.648a2.486 2.486 0 0 0-.158 3.5 2.448 2.448 0 0 0 3.482.162z" transform="translate(181.543)"/>
        <path id="Path-10" data-name="Path" d="M0 .5h158.548" transform="translate(34.325 148.078)" style="fill:none;stroke:#ebf0f6;stroke-linecap:round;stroke-linejoin:round;stroke-miterlimit:10;stroke-width:2px"/>
        <path id="Path-11" data-name="Path" class="cls-3" d="M98.824 0a4.292 4.292 0 0 1 4.31 4.3v127.3a4.3 4.3 0 0 1-4.31 4.3H4.31A4.3 4.3 0 0 1 0 131.6V4.3A4.3 4.3 0 0 1 4.31 0z" transform="translate(59.108 12.23)"/>
        <path id="Path-12" data-name="Path" d="M98.208 4.907v118.01a4.3 4.3 0 0 1-4.31 4.3H7.542L0 119.7 85.739 2.75 93.127 0z" transform="translate(64.034 20.749)" style="fill:#bcc4cf"/>
        <path id="Path-13" data-name="Path" d="M93.435 0H0v118.11a1.536 1.536 0 0 0 1.539 1.527h91.9z" transform="translate(64.805 22.906)" style="fill:#a6afba"/>
        <path id="Path-14" data-name="Path" class="cls-6" d="M93.435 1.365A1.372 1.372 0 0 0 92.05 0H1.385A1.372 1.372 0 0 0 0 1.365V118.09a1.376 1.376 0 0 0 1.385 1.383H91.9a1.376 1.376 0 0 0 1.385-1.383V1.365z" transform="translate(64.034 20.749)"/>
        <g transform="translate(0 -1.25)" style="filter:url(#Path)">
            <path id="Path-15" data-name="Path" d="M97.129 1.365A1.372 1.372 0 0 0 95.744 0H5.079C4.31 0 3.54.61 3.694 1.365 4.771 47.834 5.233 100.408 0 114.054l86.816-1.221C92.2 89.221 96.2 46.756 97.129 1.365z" transform="translate(60.34 22)" style="fill:#eaebf5"/>
        </g>
        <g transform="translate(0 -1.25)" style="filter:url(#Path-2)">
            <path id="Path-16" data-name="Path" d="M37.259 27.4a9.411 9.411 0 0 1-9.083 9.588h-2.462l-6.773.163A18.575 18.575 0 0 1 18.018.008a18.57 18.57 0 0 1 18.933 18.107l.154 3.861z" transform="translate(19.39 113.15)" style="fill:url(#linear-gradient)"/>
        </g>
        <path id="Path-17" data-name="Path" d="M22.782 14.845a9.438 9.438 0 0 1-9.082 9.606h-2.464L0 13.141 9.543 2.012 13.083 0l9.545 9.588z" transform="translate(31.864 123.982)" style="fill:url(#linear-gradient-2)"/>
        <path id="Path-18" data-name="Path" d="m10.391 7.2 3.232-3.263a2.245 2.245 0 0 0 0-3.244 2.23 2.23 0 0 0-3.232 0L7.157 3.938 3.925.693a2.232 2.232 0 0 0-3.234 0 2.248 2.248 0 0 0 0 3.244L3.925 7.2.692 10.445a2.248 2.248 0 0 0 0 3.244 2.3 2.3 0 0 0 1.695.634 2.3 2.3 0 0 0 1.693-.634l3.232-3.244 3.234 3.244a2.2 2.2 0 0 0 3.232 0A2.283 2.283 0 0 0 14.393 12a2.3 2.3 0 0 0-.616-1.7z" transform="translate(31.478 123.434)" style="fill:url(#linear-gradient-3)"/>
        <g transform="translate(0 -1.25)" style="filter:url(#Path-3)">
            <path id="Path-19" data-name="Path" class="cls-11" d="M109.232 0s-.154 7.123-2.309 52.164v.924c-2.618 44.262-41.87 53.542-46.64 54.012-2.155.145-6.311.453-13.855.616-9.235.308-23.4.471-45.409.779A.985.985 0 0 1 .1 107.1C15.488 76.307 15.642.163 15.642.163h93.589z" transform="translate(48.08 22.14)"/>
        </g>
        <path id="Path-20" data-name="Path" class="cls-3" d="M45.409 2.483H.616C.308 2.483 0 2.012 0 1.251 0 .634.308 0 .616 0h44.947c.308 0 .616.471.616 1.251 0 .616-.308 1.232-.77 1.232z" transform="translate(90.356 97.286)"/>
        <path id="Path-21" data-name="Path" class="cls-12" d="M22.782 2.465H.614C.306 2.465 0 2.012 0 1.233 0 .616.306 0 .614 0h22.168c.306 0 .614.453.614 1.233.004.616-.308 1.232-.614 1.232z" transform="translate(90.049 104.216)"/>
        <path id="Path-22" data-name="Path" class="cls-3" d="M45.563 2.483H.616C.308 2.483 0 2.012 0 1.251 0 .616.308 0 .616 0h44.947c.308 0 .616.471.616 1.251 0 .761-.308 1.232-.616 1.232z" transform="translate(97.437 41.036)"/>
        <path id="Path-23" data-name="Path" class="cls-3" d="M18.471 2.483H.616C.308 2.483 0 2.012 0 1.251 0 .634.308 0 .616 0h17.855c.308 0 .616.471.616 1.251.001.761-.308 1.232-.616 1.232z" transform="translate(124.221 47.948)"/>
        <path id="Path-24" data-name="Path" class="cls-12" d="M22.782 2.483H.616C.308 2.483 0 2.012 0 1.251 0 .634.308 0 .616 0h22.166c.308 0 .616.471.616 1.251.002.761-.308 1.232-.616 1.232z" transform="translate(97.129 47.948)"/>
        <path id="Path-25" data-name="Path" class="cls-1" d="M60.495 0c-2.615 44.262-41.869 53.56-46.64 54.013-2.155.163-6.311.471-13.855.616 19.55-9.117 30.017-25.375 29.863-38.063 9.543.78 25.861 0 30.632-16.566z" transform="translate(94.358 73.054)"/>
        <path id="Path-26" data-name="Path" d="M5.735 10.721a1.346 1.346 0 0 1-.924-.471L.347 5.918a1.406 1.406 0 0 1 0-1.849 1.383 1.383 0 0 1 1.847 0l3.541 3.553L12.969.353a1.383 1.383 0 0 1 1.847 0 1.406 1.406 0 0 1 0 1.849l-8.158 8.211a2.325 2.325 0 0 1-.923.308z" transform="translate(73.847 40.219)" style="fill:url(#linear-gradient-4)"/>
        <path id="Path-27" data-name="Path" class="cls-3" d="M45.563 2.465H.616C.308 2.465 0 2.012 0 1.233 0 .616.308 0 .616 0h44.947c.308 0 .616.453.616 1.233 0 .616-.308 1.232-.616 1.232z" transform="translate(95.436 68.558)"/>
        <path id="Path-28" data-name="Path" class="cls-12" d="M22.782 2.465H.616C.308 2.465 0 2.012 0 1.233 0 .616.308 0 .616 0h22.166c.308 0 .616.453.616 1.233.154.616-.154 1.232-.616 1.232z" transform="translate(95.128 75.47)"/>
        <path id="Path-29" data-name="Path" d="M5.579 10.721a1.317 1.317 0 0 1-.923-.453L.347 5.918a1.406 1.406 0 0 1 0-1.849 1.383 1.383 0 0 1 1.847 0l3.54 3.553L12.969.353a1.383 1.383 0 0 1 1.847 0 1.406 1.406 0 0 1 0 1.849L6.5 10.268a.927.927 0 0 1-.921.453z" transform="translate(72 67.713)" style="fill:url(#linear-gradient-5)"/>
        <path id="Path-30" data-name="Path" class="cls-15" d="m42.638 6.815-.924-.924a2.156 2.156 0 0 0-.769.453H26.938v-.925a5.388 5.388 0 1 0-10.775 0 1.2 1.2 0 0 0 .154.779H1.539A1.542 1.542 0 0 0 0 7.739v4.8C0 16.1 2.461 18.27 6 18.27h30.172c3.54 0 6.773-2.175 6.773-5.728v-4.8c.155-.311.001-.619-.307-.927z" transform="translate(90.049 5.723)"/>
        <path id="Path-31" data-name="Path" d="M42.946 7.739v5.728a6.455 6.455 0 0 1-6.311 5.564H6.311A6.455 6.455 0 0 1 0 13.467V7.739A1.538 1.538 0 0 1 1.539 6.2h14.777v-.781a5.388 5.388 0 1 1 10.775 0V6.2h14.778a1.712 1.712 0 0 1 1.077 1.539z" transform="translate(89.279 4.799)" style="fill:#2d5887"/>
        <path id="Path-32" data-name="Path" class="cls-1" d="M2.463 4.966A2.483 2.483 0 1 0 0 2.483a2.48 2.48 0 0 0 2.463 2.483z" transform="translate(108.213 7.735)"/>
        <path id="Path-33" data-name="Path" d="M42.792 0a6.454 6.454 0 0 1-6.311 5.564H6.311A6.455 6.455 0 0 1 0 0z" transform="translate(89.279 18.266)" style="fill:#316094"/>
        <path id="Path-34" data-name="Path" d="M20.472 1.616H.769A.725.725 0 0 1 0 .854.73.73 0 0 1 .769.075h19.7a.729.729 0 0 1 .769.779.724.724 0 0 1-.766.762z" transform="translate(99.9 14.475)" style="opacity:.5;fill:#1c3754"/>
        <path id="Path-35" data-name="Path" class="cls-3" d="M11.493 0S-3.747 3.861.872 6.96C5.49 9.9 16.419 15.008 26.733 11.6s0-8.211.154-8.211S11.493 0 11.493 0z" transform="translate(7.133 64.225)"/>
        <path id="Path-36" data-name="Path" class="cls-6" d="M0 8.193C5.541 9.9 22.627 7.105 33.557 0c8.62 10.676 11.852 13.467 14.932 13.775C43.716 18.56 27.862 26.3 18.934 16.24 8.466 22.892 0 8.193 0 8.193z" transform="translate(0 54.826)"/>
        <path id="Path-37" data-name="Path" class="cls-6" d="M0 16.4c5.849.311 21.7-6.812 30.325-16.4C41.407 8.193 45.1 10.059 48.334 9.588c-3.54 5.873-14.315 18.723-29.555 19.648A158.586 158.586 0 0 1 0 16.4z" transform="translate(169.168 99.77)"/>
        <path id="Path-38" data-name="Path" d="M3.694 7.431A3.716 3.716 0 1 0 0 3.716a3.708 3.708 0 0 0 3.694 3.715z" transform="translate(73.271 97.732)" style="fill:url(#linear-gradient-6)"/>
        <path id="Path-39" data-name="Path" class="cls-20" d="M6.309 0H0v4.169h6.309z" transform="translate(155.931 28.29)"/>
        <path id="Path-40" data-name="Path" class="cls-20" d="M3.484 0 0 3.5l2.5 2.518 3.484-3.5z" transform="translate(134.775 36.53)"/>
        <path id="Path-41" data-name="Path" class="cls-20" d="m0 2.3 3.482 3.5 2.285-2.3L2.286 0z" transform="translate(178.477 36.458)"/>
        <g transform="translate(0 -1.25)" style="filter:url(#Path-4)">
            <path id="Path-42" data-name="Path" d="M30.479 61.281A30.641 30.641 0 1 0 0 30.65a30.559 30.559 0 0 0 30.479 30.631z" transform="translate(129.15 33.24)" style="fill:url(#linear-gradient-7)"/>
        </g>
        <path id="Path-43" data-name="Path" d="M1.387 30.2A1.394 1.394 0 0 1 0 28.809v-.471A28.493 28.493 0 0 1 24.783.026a1.366 1.366 0 0 1 1.541 1.233A1.369 1.369 0 0 1 25.091 2.8 25.82 25.82 0 0 0 2.617 28.338v.308a1.429 1.429 0 0 1-1.23 1.554z" transform="translate(131.455 34.208)" style="fill:#88a6ff"/>
        <path id="Path-44" data-name="Path" class="cls-20" d="M9.89 26.332a28.684 28.684 0 0 1-8.928-1.4 1.369 1.369 0 0 1 .77-2.628 23.514 23.514 0 0 0 8 1.251A25.762 25.762 0 0 0 35.134 1.1 1.261 1.261 0 0 1 36.673.032a1.262 1.262 0 0 1 1.077 1.541 28.471 28.471 0 0 1-9.389 17.636A27.015 27.015 0 0 1 9.89 26.332z" transform="translate(149.889 64.449)"/>
        <path id="Path-45" data-name="Path" class="cls-11" d="M48.026 23.383a24.022 24.022 0 0 1-48.026 0A24.156 24.156 0 0 1 24.014 0a23.855 23.855 0 0 1 24.012 23.383z" transform="translate(135.611 39.234)"/>
        <path id="Path-46" data-name="Path" class="cls-23" d="M4.926 2.175H1.077A1.06 1.06 0 0 1 0 1.088 1.06 1.06 0 0 1 1.077 0h3.85A1.06 1.06 0 0 1 6 1.088a1.06 1.06 0 0 1-1.074 1.087z" transform="translate(175.171 61.323)"/>
        <path id="Path-47" data-name="Path" class="cls-23" d="M4.925 2.175H1.077A1.06 1.06 0 0 1 0 1.088 1.06 1.06 0 0 1 1.077 0h3.848A1.061 1.061 0 0 1 6 1.088a1.061 1.061 0 0 1-1.075 1.087z" transform="translate(136.997 61.323)"/>
        <path id="Path-48" data-name="Path" class="cls-23" d="M1.077 6.036A1.059 1.059 0 0 1 0 4.948V1.069A1.044 1.044 0 0 1 1.077 0a1.046 1.046 0 0 1 1.078 1.069v3.879a1.061 1.061 0 0 1-1.078 1.088z" transform="translate(157.932 78.535)"/>
        <path id="Path-49" data-name="Path" class="cls-23" d="M1.077 6.036A1.059 1.059 0 0 1 0 4.948v-3.86A1.059 1.059 0 0 1 1.077 0a1.061 1.061 0 0 1 1.078 1.088v3.86a1.061 1.061 0 0 1-1.078 1.088z" transform="translate(157.932 40.417)"/>
        <path id="Path-50" data-name="Path" class="cls-23" d="M3.54 7.123A3.562 3.562 0 1 0 0 3.553a3.553 3.553 0 0 0 3.54 3.57z" transform="translate(155.777 58.394)"/>
        <path id="Path-51" data-name="Path" d="M18.3.3a1.159 1.159 0 0 0-1.539 0L4.14 13.6h-.154a1.716 1.716 0 0 0-1.693 1.7v.145l-2 2.175a1.171 1.171 0 0 0 0 1.541 1.132 1.132 0 0 0 .769.308 1.133 1.133 0 0 0 .77-.308l2-2.157h.154a1.716 1.716 0 0 0 1.693-1.7v-.308L18.3 1.691A.874.874 0 0 0 18.3.3z" transform="translate(155.177 46.553)" style="fill:#eb358a"/>
        <path id="Path-52" data-name="Path" d="M17.494.376.409 18.338H.1c-.154-.163-.154-.471.154-.779L16.726.231a.435.435 0 0 1 .769 0z" transform="translate(155.676 46.926)" style="fill:#ff4fa2"/>
        <path id="Path-53" data-name="Path" class="cls-26" d="M12.314 2.791v4.024a2.776 2.776 0 0 1-2.771 2.791H2.771A2.776 2.776 0 0 1 0 6.815V2.791A2.776 2.776 0 0 1 2.771 0h6.772a2.776 2.776 0 0 1 2.771 2.791z" transform="translate(153.005 19.807)"/>
        <path id="Path-54" data-name="Path" class="cls-26" d="M9.506 5.845 5.812 9.561a2.359 2.359 0 0 1-3.079 0L.578 7.386a2.365 2.365 0 0 1 0-3.1L4.272.571a2.359 2.359 0 0 1 3.079 0l2.155 2.175a2.37 2.37 0 0 1 0 3.099z" transform="translate(129.338 31.08)"/>
        <path id="Path-55" data-name="Path" class="cls-26" d="m.578 5.845 3.694 3.716a2.359 2.359 0 0 0 3.079 0l2.155-2.175a2.369 2.369 0 0 0 0-3.1L5.81.571a2.357 2.357 0 0 0-3.078 0L.578 2.746a2.365 2.365 0 0 0 0 3.099z" transform="translate(179.519 31.08)"/>
        <path id="Path-56" data-name="Path" class="cls-15" d="M.638.959A.317.317 0 0 0 .946.633.313.313 0 0 0 .638.325.313.313 0 0 0 .33.633a.317.317 0 0 0 .308.326z" transform="translate(158.678 61.308)"/>
    </g>
</svg>
