<svg xmlns="http://www.w3.org/2000/svg" width="24" height="24" viewBox="0 0 24 24">
    <g data-name="Group 1829" transform="translate(-1081 -2080)">
        <circle data-name="Ellipse 378" cx="12" cy="12" r="12" transform="translate(1081 2080)" style="opacity:.2;fill:#ffab00"/>
        <path data-name="Path 2436" d="M17.523 8.755 12.538 3.77a.548.548 0 0 0-.793 0L9.932 5.583a.544.544 0 0 0 0 .793l.4.4-1.7 1.7c-.85-.17-3.172-.567-4.419.68a.548.548 0 0 0 0 .793l3.229 3.229-3.572 3.565a.548.548 0 0 0 0 .793.6.6 0 0 0 .793 0l3.569-3.569 3.229 3.233a.533.533 0 0 0 .793 0c1.246-1.246.85-3.569.68-4.419l1.7-1.7.4.4a.548.548 0 0 0 .793 0l1.813-1.813a.855.855 0 0 0-.117-.913zm-2.209 1.416-.4-.4a.548.548 0 0 0-.793 0L11.8 12.154a.543.543 0 0 0-.17.567 5.455 5.455 0 0 1 0 3.172L5.4 9.662a5.467 5.467 0 0 1 3.172 0 .575.575 0 0 0 .567-.17l2.323-2.323a.5.5 0 0 0 0-.793l-.4-.4 1.076-1.02 4.192 4.192z" transform="translate(1082.301 2081.4)" style="fill:#ffab00"/>
    </g>
</svg>
